<svg width="18" height="18" viewBox="0 0 18 18" fill="none" xmlns="http://www.w3.org/2000/svg">
<path d="M4.14253 10.8164C3.62863 9.97221 3.33301 8.9831 3.33301 7.9256C3.33301 4.82772 5.87006 2.31641 8.99967 2.31641C12.1293 2.31641 14.6663 4.82772 14.6663 7.9256C14.6663 8.9831 14.3708 9.97221 13.8568 10.8164" stroke="white" stroke-width="0.75" stroke-linecap="round"/>
<path d="M10.4163 7.98438C9.98249 8.43998 9.50337 8.69271 8.99967 8.69271C8.49598 8.69271 8.01686 8.43998 7.58301 7.98438" stroke="white" stroke-width="0.75" stroke-linecap="round"/>
<path d="M5.72986 13.0123C5.66478 12.8163 5.63225 12.7184 5.63604 12.639C5.64406 12.4712 5.74988 12.3238 5.90602 12.2631C5.97984 12.2344 6.08274 12.2344 6.28852 12.2344H11.7121C11.9179 12.2344 12.0208 12.2344 12.0946 12.2631C12.2508 12.3238 12.3566 12.4712 12.3646 12.639C12.3684 12.7184 12.3359 12.8163 12.2708 13.0123C12.1505 13.3744 12.0904 13.5555 11.9976 13.702C11.8033 14.0092 11.4988 14.2295 11.147 14.3174C10.9791 14.3594 10.7889 14.3594 10.4086 14.3594H7.59209C7.21175 14.3594 7.0216 14.3594 6.85368 14.3174C6.50191 14.2295 6.19732 14.0092 6.00301 13.702C5.91026 13.5555 5.85013 13.3744 5.72986 13.0123Z" stroke="white" stroke-width="0.75"/>
<path d="M11.125 14.3594L11.0334 14.8174C10.9333 15.3182 10.8832 15.5686 10.7709 15.7666C10.5974 16.0725 10.3162 16.303 9.98217 16.4131C9.76613 16.4844 9.51078 16.4844 9 16.4844C8.48922 16.4844 8.23387 16.4844 8.01783 16.4131C7.68378 16.303 7.4026 16.0725 7.22907 15.7666C7.11685 15.5686 7.06677 15.3182 6.9666 14.8174L6.875 14.3594" stroke="white" stroke-width="0.75"/>
<path d="M9 11.8789V8.69141" stroke="white" stroke-width="0.75" stroke-linecap="round" stroke-linejoin="round"/>
</svg>
