<svg width="222" height="296" viewBox="0 0 222 296" fill="none" xmlns="http://www.w3.org/2000/svg">
<path d="M131.663 202.151L120.956 185.889M131.663 202.151L137.972 221.283M131.663 202.151L134.387 203.9M131.663 202.151L127.484 196.121M120.956 185.889L119.535 183.731M120.956 185.889L122.85 187.801M137.972 221.283L139.213 241.774M137.972 221.283L133.35 215.379M137.972 221.283L141.587 222.571M134.387 203.9L141.587 222.571M134.387 203.9L136.736 202.78M134.387 203.9L122.85 187.801M127.484 196.121L116.83 179.623M127.484 196.121L133.35 215.379M127.484 196.121L117.073 191.589M119.535 183.731L116.83 179.623M119.535 183.731L124.658 187.651M122.85 187.801L124.658 187.651M116.83 179.623L111.645 175.139M116.83 179.623L106.828 175.676M124.658 187.651L136.736 202.78M124.658 187.651L126.251 184.968M111.645 175.139L110.813 174.42M111.645 175.139L126.251 184.968M106.828 175.676L105.012 174.103L104.99 174.084L92.7435 163.473M106.828 175.676L90.7915 177.243M106.828 175.676L117.073 191.589M110.813 174.42L103.668 168.24M110.813 174.42L112.15 171.062M126.251 184.968L138.773 198.434M126.251 184.968L127.627 179.987M103.668 168.24L103.418 168.023L102.202 166.971M103.668 168.24L112.15 171.062M112.15 171.062L127.627 179.987M112.15 171.062L113.436 166.553M102.202 166.971L95.6502 163.996M102.202 166.971L92.7435 163.473M95.6502 163.996L88.9705 160.962M95.6502 163.996L96.6252 161.811M92.7435 163.473L75.8112 155.779M92.7435 163.473L78.7353 166.739M88.9705 160.962L84.6306 158.991L80.6044 157.525M88.9705 160.962L96.6252 161.811M96.6252 161.811L113.436 166.553M96.6252 161.811L98.0671 156.816M80.6044 157.525L75.8112 155.779M80.6044 157.525L81.5814 155.113M75.8112 155.779L72.608 155.311M75.8112 155.779L64.216 160.107M81.5814 155.113L72.608 155.311M81.5814 155.113L98.0671 156.816M81.5814 155.113L83.6055 148.091M72.608 155.311L66.6174 154.433M64.216 160.107L48.2048 157.743M64.216 160.107L56.2349 167.901L56.206 167.93L51.2713 172.75M64.216 160.107L78.7353 166.739M66.6174 154.433L57.1945 153.054M66.6174 154.433L68.9361 147.482M68.9361 147.482L83.6055 148.091M68.9361 147.482L71.6022 138.964M68.9361 147.482L56.6103 148.086M54.8085 153.342L57.1955 153.054L48.2048 157.743M54.8085 153.342L45.9795 154.408M54.8085 153.342L56.6103 148.086M48.2048 157.743L40.3306 158.689L40.2535 158.698L40.1246 158.714L31.8124 159.713M48.2048 157.743L39.7194 171.01M45.9795 154.408L41.4316 154.956L41.4018 154.96M45.9795 154.408L47.4839 149.844M56.6103 148.086L59.9068 137.58M56.6103 148.086L47.4839 149.844M41.4018 154.96L41.2719 154.977M41.4018 154.96L42.1256 152.604M47.4839 149.844L51.3849 136.664M47.4839 149.844L42.1256 152.604M41.2719 154.977L41.1342 154.993M41.2719 154.977L42.1256 152.604M42.1256 152.604L46.5666 136.271M41.1342 154.993L38.1611 155.351M41.1342 154.993L45.7263 136.419M38.1611 155.351L19.9573 162.547M38.1611 155.351L31.8124 159.713M45.7263 136.419L46.5666 136.271M45.7263 136.419L49.8968 116.376M19.9573 162.547L3.76132 174.138L2.18282 175.892M19.9573 162.547L16.141 165.903M31.8124 159.713L16.141 165.903M31.8124 159.713L27.8681 172.41M2.18282 175.892L-9.15639 188.996M2.18282 175.892L6.47557 184.071M2.18282 175.892L16.141 165.903M16.141 165.903L16.5635 176.86M-9.15639 188.996L-9.39028 189.338L-18.6274 207.172M-9.15639 188.996L-17.1143 204.362M-9.15639 188.996L-1.71819 193.541M6.47557 184.071L-1.71819 193.541M6.47557 184.071L16.1583 197.583M6.47557 184.071L16.5635 176.86M-18.6274 207.172L-23.3359 226.491M-18.6274 207.172L-17.1143 204.362M-17.1143 204.362L-21.1703 221.019L-10.3807 216.693M-17.1143 204.362L-7.45565 204.633M-1.71819 193.541L-7.45661 204.633M-1.71819 193.541L11.9791 202.414M-23.3359 226.491L-23.2455 246.031L-18.2491 264.498M-23.3359 226.491L-21.1722 221.019L-21.0885 237.851M-18.2491 264.498L-8.62798 280.646M-18.2491 264.498L-16.7823 253.715M-23.2445 246.031L-21.0885 237.851M-21.0885 237.851L-16.7823 253.715M-21.0885 237.851L-10.2989 228.862L-10.3807 216.693M-8.62798 280.646L-2.74421 288.276L11.3978 301.482M-8.62798 280.646L5.00295 293.367M-8.62798 280.646L-8.499 267.569M-16.7823 253.715L-8.499 267.569M-16.7823 253.715L-7.17364 240.264M11.3978 301.482L28.7979 310.169M11.3978 301.482L5.00295 293.367M5.00295 293.367L21.7755 301.719M5.00295 293.367L3.22232 278.457M-8.499 267.569L3.22232 278.457M-8.499 267.569L-1.18304 250.207M28.7979 310.169L39.7704 314.503L58.772 318.001M28.7979 310.169L48.2837 313.671M28.7979 310.169L21.7755 301.719M58.772 318.001L78.28 316.18M58.772 318.001L48.2837 313.671M48.2837 313.671L68.501 311.759M48.2837 313.671L40.5664 305.068M21.7755 301.719L40.5664 305.068M21.7755 301.719L17.6213 285.575M78.28 316.18L89.3439 314.446L106.9 307.541M78.28 316.18L96.9352 309.039M78.28 316.18L68.501 311.759M106.9 307.541L122.088 295.975M106.9 307.541L96.9352 309.039M96.9352 309.039L88.032 304.437M96.9352 309.039L113.407 297.048M68.501 311.759L88.032 304.437M68.501 311.759L60.0628 303.195M122.088 295.975L129.96 288.594L140.41 274.287M122.088 295.975L133.845 280.542M122.088 295.975L113.407 297.048M140.41 274.287L146.131 261.763L151.194 246.796M140.41 274.287L146.599 257.334M140.41 274.287L133.845 280.542M133.845 280.542L126.527 281.057M133.845 280.542L141.305 262.291M113.407 297.048L105.469 292.193M113.407 297.048L126.527 281.057M151.194 246.796L154.589 232.437M151.194 246.796L151.632 230.492M151.194 246.796L146.599 257.334M146.599 257.334L141.305 262.291M146.599 257.334L148.058 238.902M154.589 232.437L157.457 215.189M154.589 232.437L154.255 218.677M151.632 230.492L148.058 238.902M151.632 230.492L154.255 218.677M151.632 230.492L147.43 213.983M157.457 215.189L158.958 201.216L162.274 204.611L167.185 209.238M157.457 215.189L156.443 204.467M154.255 218.677L156.443 204.467M154.255 218.677L149.441 204.693M167.185 209.238L154.778 196.08M167.185 209.238L173.355 212.203M156.443 204.467L156.952 199.162M156.443 204.467L151.105 193.48M88.032 304.437L105.469 292.193M88.032 304.437L78.895 296.108M60.0628 303.195L78.895 296.108M60.0628 303.195L50.4965 286.744M60.0628 303.195L40.5664 305.068M40.5664 305.068L33.7615 288.4M105.469 292.193L119.565 275.91M105.469 292.193L95.7147 284.28M78.895 296.108L95.7147 284.28M78.895 296.108L66.6309 280.633M50.4965 286.744L33.7615 288.4M50.4965 286.744L66.6309 280.633M50.4965 286.744L41.2651 263.791M126.527 281.057L119.565 275.91M126.527 281.057L135.338 262.183M119.565 275.91L129.289 256.74M119.565 275.91L109.32 268.562M95.7147 284.28L109.32 268.562M95.7147 284.28L81.051 270.469M66.6309 280.633L81.051 270.469M66.6309 280.633L52.8084 259.381M141.305 262.291L135.338 262.183M141.305 262.291L143.925 242.502M135.338 262.183L129.289 256.74M135.338 262.183L139.213 241.774M129.289 256.74L133.958 236.07M129.289 256.74L118.717 250.069M109.32 268.562L118.717 250.069M109.32 268.562L92.7242 256.982M81.051 270.469L92.7242 256.982M81.051 270.469L63.1351 252.079M139.213 241.774L133.958 236.07M139.213 241.774L143.925 242.502M133.958 236.07L133.35 215.379M133.958 236.07L123.249 230.125M118.717 250.069L123.249 230.125M118.717 250.069L100.801 241.13L104.729 224.01M92.7242 256.982L100.802 241.13L77.304 231.066M92.7242 256.982L71.505 242.411L77.304 231.066M143.925 242.502L148.058 238.902M143.925 242.502L141.587 222.571M133.35 215.379L122.696 210.163M123.249 230.125L122.696 210.163M123.249 230.125L104.729 224.01M148.058 238.902L144.723 220.279M141.587 222.571L144.723 220.279M122.696 210.163L117.073 191.589M122.696 210.163L104.304 206.866M104.729 224.01L104.304 206.866M104.729 224.01L80.1607 218.766M144.723 220.279L147.43 213.983M144.723 220.279L136.736 202.78M136.736 202.78L138.773 198.434M117.073 191.589L99.5349 190.923M104.304 206.866L99.5349 190.923M104.304 206.866L79.9028 206.436M90.7915 177.243L78.7353 166.739M90.7915 177.243L70.3076 185.141M90.7915 177.243L99.5349 190.923M99.5349 190.923L99.2047 190.982L76.5369 194.993M33.7615 288.4L17.6213 285.575M33.7615 288.4L29.2358 265.028M17.6213 285.575L3.85565 278.769L3.22232 278.457M17.6213 285.575L17.6175 263.048M147.43 213.983L149.441 204.693M147.43 213.983L138.773 198.434M138.773 198.434L140.361 191.476M149.441 204.693L151.105 193.48M149.441 204.693L140.361 191.476M140.361 191.476L141.69 183.001M140.361 191.476L127.627 179.987M127.627 179.987L128.828 173.799M151.105 193.48L151.129 193.203M151.105 193.48L141.69 183.001M141.69 183.001L141.963 180.122M141.69 183.001L128.828 173.799M128.828 173.799L129.783 165.813M128.828 173.799L113.436 166.553M129.783 165.813L114.541 160.474M129.783 165.813L134.516 168.239M129.783 165.813L130.228 160.419M113.436 166.553L114.541 160.474M114.541 160.474L114.563 160.303L115.593 152.698M114.541 160.474L98.0671 156.816M115.593 152.698L99.5435 149.865M115.593 152.698L116.664 144.831M115.593 152.698L127.612 155.649M98.0671 156.816L99.5435 149.865M99.5435 149.865L101.055 142.726M99.5435 149.865L83.6055 148.091M116.664 144.831L101.055 142.726M116.664 144.831L117.56 136.104M116.664 144.831L122.338 145.624M101.055 142.726L102.399 134.664M101.055 142.726L85.8327 140.745L85.6624 140.723M83.6055 148.091L85.6624 140.723M85.6624 140.723L87.5316 132.426M85.6624 140.723L71.6022 138.964M102.399 134.664L117.56 136.104M102.399 134.664L103.816 125.842M102.399 134.664L87.5316 132.426M87.5316 132.426L89.4758 123.139M87.5316 132.426L74.0277 129.566M71.6022 138.964L74.0277 129.566M71.6022 138.964L59.9068 137.58M74.0277 129.566L76.4984 119.071M74.0277 129.566L62.8742 126.287M59.9068 137.58L62.8742 126.287M59.9068 137.58L51.3849 136.664M62.8742 126.287L65.831 113.925M62.8742 126.287L54.8441 122.833M51.3849 136.664L54.8441 122.833M51.3849 136.664L46.5666 136.271M54.8441 122.833L58.2109 108.085M54.8441 122.833L50.4358 119.451M46.5666 136.271L50.4358 119.451M50.4358 119.451L54.1097 101.974M50.4358 119.451L49.8968 116.376M117.56 136.104H117.588M117.56 136.104L117.564 136.058M103.816 125.842L89.4758 123.139M103.816 125.842L105.388 117.841M103.816 125.842L112.882 126.532M89.4758 123.139L91.5625 114.702M89.4758 123.139L76.4984 119.071M76.4984 119.071L79.0952 109.535M76.4984 119.071L65.831 113.925M65.831 113.925L68.8898 102.693M65.831 113.925L58.2109 108.085M58.2109 108.085L61.648 94.6799M58.2109 108.085L54.1097 101.974M54.1097 101.974L53.7671 96.0217M54.1097 101.974L57.8269 86.08M49.8968 116.376L53.7671 96.0217M211.735 170.653L209.497 166.126L209.462 166.056M211.735 170.653L213.387 177.555M211.735 170.653L217.328 176.617M209.462 166.056L208.93 164.979M209.462 166.056L209.531 166.133M213.387 177.555L206.864 164.904M213.387 177.555L213.108 184.973M213.387 177.555L219.562 183.576M217.328 176.617L219.562 183.576M217.328 176.617L222.153 176.659M217.328 176.617L213.488 170.576M208.93 164.979L208.014 163.129M208.93 164.979L212.857 166.84M209.531 166.133L213.488 170.576M209.531 166.133L212.857 166.84M208.014 163.129L206.224 159.509M208.014 163.129L211.507 160.465M212.857 166.84L218.073 171.158M212.857 166.84L217.222 162.847M206.224 159.509L205.922 158.899M206.224 159.509L211.507 160.465M211.507 160.465L217.222 162.847M211.507 160.465L215.802 152.64M205.922 158.899L205.914 158.883M205.922 158.899L210.412 151.672M205.914 158.883L203.95 153.777M205.914 158.883L206.716 163.965L206.718 163.974L206.864 164.904M210.412 151.672L215.802 152.64M210.412 151.672L215.11 139.871M210.412 151.672L205.366 151.671M203.95 153.777L203.36 152.244L203.314 152.125M203.95 153.777L205.366 151.671M206.864 164.904L205.734 171.519M203.314 152.125L202.365 149.662M203.314 152.125L205.366 151.671M205.366 151.671L210.718 139.336M202.365 149.662L201.232 146.717M202.365 149.662L207.064 139.335M201.232 146.717L200.774 145.528M201.232 146.717L204.396 139.864M207.064 139.335L210.718 139.336M207.064 139.335L213.275 123.138M207.064 139.335L204.396 139.864M200.774 145.528L199.584 142.434M200.774 145.528L202.895 140.883M204.396 139.864L211.276 122.334M204.396 139.864L202.895 140.883M199.584 142.434L193.419 122.531M199.584 142.434L199.697 146.772M202.895 140.883L210.372 121.816M193.419 122.531L187.209 101.027M193.419 122.531L192.638 124.542M187.209 101.027L181.566 80.0653M187.209 101.027L185.477 100.265M192.638 124.542L185.477 100.264M192.638 124.542L189.524 127.389M192.638 124.542L199.697 146.771M181.566 80.0653L176.39 60.9366M181.566 80.0653L178.906 76.4386M176.39 60.9366L171.88 46.2402M176.39 60.9366L172.849 54.5937M178.906 76.4386L172.849 54.5937M178.906 76.4386L173.742 74.0141M178.906 76.4386L185.477 100.264M171.88 46.2402L168.265 36.1195L163.218 25.9237M171.88 46.2402L167.528 37.6518M172.849 54.5937L167.528 37.6518M172.849 54.5937L166.751 49.6792M163.218 25.9237L159.456 21.2325L151.154 12.0503M163.218 25.9237L155.554 17.5211M163.218 25.9237L167.528 37.6518M167.528 37.6518L160.581 30.6871M151.154 12.0503L140.784 5.3888M151.154 12.0503L155.554 17.5211M155.554 17.5211L145.789 11.5045M155.554 17.5211L160.581 30.6871M140.784 5.3888L129.07 1.66585M140.784 5.3888L145.647 11.3322L145.789 11.5055M129.07 1.66585L116.788 1.18652M129.07 1.66585L134.605 8.26282M116.788 1.18652L104.785 3.99125M116.788 1.18652L122.753 8.07514M134.605 8.26282L145.789 11.5045M134.605 8.26282L122.753 8.07514M134.605 8.26282L140.927 23.452M104.785 3.99125L100.001 5.53317L88.9021 11.313M104.785 3.99125L93.884 9.88079M104.785 3.99125L111.063 10.9646M122.753 8.07514L111.063 10.9646M122.753 8.07514L129.575 23.7186M88.9021 11.313L79.7613 19.8157M88.9021 11.313L93.884 9.88079M93.884 9.88079L100.348 16.7174M111.063 10.9646L100.348 16.7174M111.063 10.9646L118.245 26.6418M79.7613 19.8157L73.2105 30.4706M79.7613 19.8157L84.8452 18.4653M73.2105 30.4706L68.707 38.0551L65.2324 49.4087M73.2105 30.4706L69.6618 42.5365M73.2105 30.4706L78.2954 29.1539M84.8452 18.4653L78.2954 29.1539M84.8452 18.4653L91.3671 24.9458M84.8452 18.4653L93.884 9.87982M65.2324 49.4087L61.238 61.7672L57.6536 77.4954L53.7671 96.0217M65.2324 49.4087L65.1592 61.4082M65.2324 49.4087L69.6618 42.5365M69.6618 42.5365L69.4144 55.2126M69.6618 42.5365L74.6437 41.189M78.2954 29.1539L74.6437 41.189M78.2954 29.1539L84.7432 35.0675M65.1592 61.4082L61.2919 72.3336M65.1592 61.4082L68.5183 73.2268M65.1592 61.4082L69.4134 55.2126M61.2389 61.7682L61.2919 72.3336M61.2919 72.3336L57.8269 86.08M61.2919 72.3336L64.8868 82.8008M57.6536 77.4935L57.8269 86.08M57.8269 86.08L61.648 94.6799M105.388 117.841L91.5625 114.702M105.388 117.841L108.895 118.049M105.388 117.841L106.383 112.706M91.5625 114.702L93.5693 106.572M91.5625 114.702L79.0952 109.535M79.0952 109.535L81.5833 100.561M79.0952 109.535L68.8898 102.693M68.8898 102.693L71.7976 92.4402M68.8898 102.693L61.648 94.6799M61.648 94.6799L64.8868 82.8008M93.5693 106.572L81.5833 100.561M93.5693 106.572L95.9294 99.735M93.5693 106.572L104.898 109.545M81.5833 100.561L84.44 93.0966M81.5833 100.561L71.7976 92.4402M71.7976 92.4402L75.0884 84.0453M71.7976 92.4402L64.8868 82.8008M64.8868 82.8008L68.5183 73.2268M95.9294 99.735L84.44 93.0966M95.9294 99.735L100.888 101.205M95.9294 99.735L98.2259 95.6829M84.44 93.0966L87.5691 88.3034M84.44 93.0966L75.0884 84.0453M75.0884 84.0453L78.6814 78.918M75.0884 84.0453L68.5183 73.2268M68.5183 73.2268L72.4935 67.625M87.5691 88.3034L78.6814 78.918M87.5691 88.3034L91.0841 86.2244M87.5691 88.3034L97.709 94.6097M78.6814 78.918L82.7027 77.0816M78.6814 78.918L72.4935 67.625M72.4935 67.625L76.9383 66.0071M72.4935 67.625L69.4134 55.2126M69.4134 55.2126L74.1826 53.764M91.0841 86.2244L82.7027 77.0816M91.0841 86.2244L94.4019 88.3217M91.0841 86.2244L93.6377 87.0704M82.7027 77.0816L87.6326 79.4214M82.7027 77.0816L76.9383 66.0071M76.9383 66.0071L82.4111 69.3219M76.9383 66.0071L74.1826 53.764M74.1826 53.764L80.0991 58.0462M74.1826 53.764L74.6437 41.189M74.6437 41.189L80.8884 46.3576M87.6326 79.4214L93.1583 86.285M87.6326 79.4214L82.4111 69.3219M82.4111 69.3219L88.5585 77.8583L93.1583 86.285M82.4111 69.3219L80.0991 58.0462M80.0991 58.0462L86.7721 68.2968M80.0991 58.0462L80.8884 46.3576M80.8884 46.3576L87.9637 58.2426M80.8884 46.3576L84.7432 35.0675M84.7432 35.0675L92.0774 48.3962M84.7432 35.0675L91.3671 24.9458M94.4019 88.3217L95.0246 89.34M94.4019 88.3217L93.6377 87.0704M93.6377 87.0704L93.1583 86.285M86.7721 68.2968L94.887 83.8759M86.7721 68.2968L87.9637 58.2426M87.9637 58.2426L96.5867 76.0392M87.9637 58.2426L92.0774 48.3962M92.0774 48.3962L101.036 68.1457M92.0774 48.3962L98.8092 39.4334M91.3671 24.9458L98.8092 39.4334M91.3671 24.9458L100.348 16.7174M98.8092 39.4334L107.916 60.7393M98.8092 39.4334L107.74 32.0038M100.348 16.7174L107.74 32.0038M107.74 32.0038L116.793 54.3608M107.74 32.0038L118.245 26.6418M118.245 26.6418L127.04 49.4713M118.245 26.6418L129.575 23.7186M145.789 11.5045L151.501 25.8458L160.581 30.6871M160.581 30.6871L166.751 49.6773M94.887 83.8759L95.9929 90.9271L96.0227 91.1139M94.887 83.8759L104.056 104.13M94.887 83.8759L96.5867 76.0411M101.036 68.1457L96.5867 76.0411M101.036 68.1457L111.185 93.421M101.036 68.1457L107.916 60.7412L118.238 87.9059M116.793 54.3608L107.916 60.7383M116.793 54.3608L127.051 82.8085M116.793 54.3608L127.04 49.4713M127.04 49.4713L137 78.4993M127.04 49.4713L137.923 46.4154M129.575 23.7186L137.923 46.4173M129.575 23.7186L140.927 23.452M140.927 23.452L148.664 45.424M140.927 23.452L151.501 25.8477L158.495 46.553L166.751 49.6792M166.751 49.6792L173.742 74.016M96.5867 76.0411L106.343 98.9573M118.238 87.9059L111.185 93.419M118.238 87.9059L129.756 118.158M118.238 87.9059L127.051 82.8085M127.051 82.8085L138.433 114.275M127.051 82.8085L137 78.4993M137 78.4993L147.986 110.431M137 78.4993L147.367 75.2856M137.923 46.4154L147.367 75.2856M137.923 46.4154L148.664 45.4221M147.367 75.2856L157.726 106.904M147.367 75.2856L157.409 73.4019M148.664 45.4221L157.409 73.4019M148.664 45.4221L158.495 46.5511L166.402 72.9794M157.409 73.4019L166.947 103.947M157.409 73.4019L166.402 72.9794M166.402 72.9794L173.742 74.0141M166.402 72.9794L174.99 101.772M173.742 74.0141L181.317 100.514M181.317 100.514L174.99 101.772M181.317 100.514L189.524 127.389M181.317 100.514L185.477 100.264M104.056 104.128L104.447 108.585M104.056 104.128L114.438 127.398M104.056 104.128L106.343 98.9554M114.438 127.398L114.031 128.974M114.438 127.398L125.85 151.352M114.438 127.398L117.341 124.954M106.343 98.9554L117.341 124.954M106.343 98.9554L111.185 93.419M117.341 124.954L129.391 151.523M117.341 124.954L122.569 121.799M111.185 93.419L122.569 121.799M122.569 121.799L135.004 150.648M122.569 121.799L129.756 118.158M129.756 118.158L142.299 148.789M129.756 118.158L138.433 114.275M138.433 114.275L150.792 146.055M138.433 114.275L147.986 110.431M147.986 110.431L159.884 142.638M147.986 110.431L157.726 106.904M157.726 106.904L168.918 138.784M157.726 106.904L166.947 103.947M166.947 103.947L177.244 134.767M166.947 103.947L174.99 101.772M174.99 101.772L184.268 130.88M189.524 127.389L184.268 130.88M189.524 127.389L197.597 151.812M125.85 151.352L124.602 150.16M125.85 151.352L137.775 173.955L141.873 176.26M125.85 151.352L129.391 151.523M129.391 151.523L141.873 176.26M129.391 151.523L135.004 150.648M135.004 150.648L147.777 177.217M135.004 150.648L142.299 148.789M142.299 148.789L155.073 176.766M142.299 148.789L150.792 146.055M150.792 146.055L163.276 174.903M150.792 146.055L159.884 142.638M159.884 142.638L171.807 171.756M159.884 142.638L168.918 138.784M168.918 138.784L180.056 167.551M168.918 138.784L177.244 134.767M177.244 134.767L187.43 162.582M177.244 134.767L183.956 131.052L184.268 130.88M184.268 130.88L193.407 157.208L197.597 151.812M197.597 151.812L205.734 171.519M197.597 151.812L199.697 146.771M199.697 146.771L206.469 163.902L206.479 163.928L206.864 164.903M141.873 176.26L154.778 196.08M141.873 176.26L147.777 177.217M147.777 177.217L160.888 198.349M147.777 177.217L155.073 176.766M155.073 176.766L168.1 198.909M155.073 176.766L163.276 174.903M163.276 174.903L175.933 197.684M163.276 174.903L171.807 171.756M171.807 171.756L183.837 194.75M171.807 171.756L180.056 167.551M180.056 167.551L191.254 190.317M180.056 167.551L187.43 162.583M205.734 171.519L202.586 178.271M205.734 171.519L213.108 184.973M154.778 196.08L150.197 192.249M154.778 196.08L160.888 198.349M160.888 198.349L173.355 212.203M160.888 198.349L168.1 198.909M168.1 198.909L180.358 213.317M168.1 198.909L175.933 197.685M183.837 194.75L175.933 197.685M183.837 194.75L194.944 209.695M183.837 194.75L191.254 190.317M191.254 190.317L201.51 205.206M191.254 190.317L197.653 184.69M187.43 162.583L188.763 165.466L188.788 165.521L189.236 166.487L189.271 166.563L197.653 184.69M187.43 162.583L193.407 157.209L202.586 178.271M197.653 184.69L206.959 199.3M197.653 184.69L202.586 178.271M202.586 178.271L210.908 192.391M213.108 184.973L210.908 192.391M213.108 184.973L220.024 190.978M173.355 212.203L180.358 213.317M173.355 212.203L185.352 216.878L192.048 218.185M180.358 213.317L192.048 218.185M180.358 213.317L187.726 212.464M175.933 197.685L187.726 212.464M187.726 212.464L198.883 217.555M187.726 212.464L194.944 209.695M194.944 209.695L205.385 215.022M194.944 209.695L201.51 205.206M201.51 205.206L211.106 210.761M201.51 205.206L206.959 199.3M206.959 199.3L215.643 205.058M206.959 199.3L210.766 192.638L210.908 192.391M210.908 192.391L218.679 198.305M220.024 190.978L218.679 198.305M220.024 190.978L225.876 189.617M220.024 190.978L219.562 183.576M219.562 183.576L224.818 182.957M192.048 218.185L198.883 217.555M198.883 217.555L205.385 215.022M205.385 215.022L211.106 210.761M205.385 215.022L214.419 210.969L219.33 207.232M211.106 210.761L219.33 207.232M211.106 210.761L215.643 205.058M215.643 205.058L223.029 202.185M215.643 205.058L218.679 198.305M218.679 198.305L225.256 196.174M225.876 189.617L225.256 196.174M225.876 189.617L231.055 181.302M225.876 189.617L224.818 182.957M224.818 182.957L229.521 175.963M224.818 182.957L222.153 176.659M222.153 176.659L226.552 170.878M222.153 176.659L218.073 171.158M213.488 170.576L218.073 171.158M219.33 207.232L223.029 202.185M223.029 202.185L225.256 196.174M223.029 202.185L229.543 191.273M225.256 196.174L231.052 186.522M231.055 181.302L231.052 186.522M231.055 181.302L235.357 167.599M231.055 181.302L229.521 175.963M229.521 175.963L233.464 163.914M229.521 175.963L226.552 170.878M226.552 170.878L230.307 160.34M226.552 170.878L222.358 166.401M218.073 171.158L222.358 166.401M231.052 186.522L229.543 191.273M231.052 186.522L235.864 171.137M229.543 191.273L234.979 174.292L235.864 171.137M235.864 171.137L235.357 167.599M235.864 171.137L239.979 151.876M235.357 167.599L239.044 150.132M235.357 167.599L233.464 163.914M233.464 163.914L236.883 148.17M233.464 163.914L230.307 160.34M230.307 160.34L233.639 146.127M230.307 160.34L226.11 157.124M222.358 166.401L226.11 157.124M222.358 166.401L217.222 162.847M226.11 157.124L229.537 144.143M226.11 157.124L221.159 154.495M217.222 162.847L221.159 154.495M221.159 154.495L224.861 142.361M221.159 154.495L215.802 152.64M239.044 150.132L239.979 151.876M239.044 150.132L242.493 131.241M239.044 150.132L236.883 148.17M236.883 148.17L240.137 130.804M236.883 148.17L233.639 146.127M233.639 146.127L236.879 130.066M233.639 146.127L229.537 144.143M229.537 144.143L232.948 129.081M229.537 144.143L224.861 142.361M224.861 142.361L228.614 127.914M224.861 142.361L219.937 140.905M215.802 152.64L219.937 140.905M219.937 140.905L224.181 126.648M219.937 140.905L215.11 139.871M239.979 151.876L243.791 131.351M239.979 151.876L243.962 131.132M242.493 131.241L243.791 131.351M242.493 131.241L245.634 113.197M242.493 131.241L240.137 130.804M240.137 130.804L243.152 113.864M240.137 130.804L236.879 130.066M236.879 130.066L239.961 114.007M236.879 130.066L232.948 129.081M232.948 129.081L236.28 113.618M232.948 129.081L228.614 127.914M228.614 127.914L232.365 112.72M228.614 127.914L224.181 126.648M224.181 126.648L224.322 126.15L228.488 111.375M224.181 126.648L219.956 125.373M215.11 139.871L219.956 125.373M215.11 139.871L210.718 139.336M219.956 125.373L224.913 109.683M219.956 125.373L216.234 124.175M210.718 139.336L216.234 124.175M216.234 124.175L221.895 107.756M216.234 124.175L213.275 123.138M243.791 131.351L243.962 131.132M243.791 131.351L247.235 112.055M243.962 131.132L247.865 110.525M247.235 112.055L245.634 113.197M247.235 112.055L247.865 110.525M247.235 112.055L251.179 96.4221M245.634 113.197L249.346 98.22M245.634 113.197L243.152 113.864M243.152 113.864L246.828 99.4135M243.152 113.864L239.961 114.007M239.961 114.007L243.794 99.9179M239.961 114.007L236.28 113.618M236.28 113.618L240.457 99.6994M236.28 113.618L232.365 112.72M232.365 112.72L237.045 98.7706M232.365 112.72L228.488 111.375M228.488 111.375L233.795 97.194M228.488 111.375L224.913 109.683M224.913 109.683L225.081 109.277L230.926 95.0861M224.913 109.683L221.895 107.756M221.895 107.756L228.641 92.5874M221.895 107.756L219.639 105.73M213.275 123.138L219.639 105.73M213.275 123.138L211.276 122.334M219.639 105.73L227.097 89.8694M219.639 105.73L218.296 103.744M211.276 122.334L218.296 103.744M211.276 122.334L210.372 121.816M218.296 103.744L226.394 87.1214M218.296 103.744L217.955 101.934M210.372 121.816L217.955 101.934M249.346 98.22L251.179 96.4221M249.346 98.22L253.697 88.0464M249.346 98.22L246.828 99.4135M246.828 99.4135L251.242 89.2803M246.828 99.4135L243.794 99.9179M243.794 99.9179L248.473 89.7635M243.794 99.9179L240.457 99.6994M240.457 99.6994L245.578 89.4632M240.457 99.6994L237.045 98.7706M237.045 98.7706L242.758 88.3977M237.045 98.7706L233.795 97.194M233.795 97.194L240.206 86.6382M233.795 97.194L230.926 95.0861M230.926 95.0861L238.091 84.3148M230.926 95.0861L228.641 92.5874M228.641 92.5874L236.563 81.5774M228.641 92.5874L227.097 89.8694M227.097 89.8694L235.731 78.6168M227.097 89.8694L226.394 87.1214M226.394 87.1214L235.643 75.6349M226.394 87.1214L226.583 84.5323M217.955 101.934L226.583 84.5323M217.955 101.934L218.637 100.424L227.646 82.2772M247.865 110.525L252.196 94.2141M251.179 96.4221L255.269 87.0589M251.179 96.4221L252.196 94.2141M253.697 88.0464L254.32 87.6546L255.269 87.0589M253.697 88.0464L251.242 89.2803M251.242 89.2803L255.42 86.5593M251.242 89.2803L248.473 89.7635M248.473 89.7635L254.204 86.0983M248.473 89.7635L245.578 89.4632M245.578 89.4632L245.774 89.3467L252.35 85.3956M245.578 89.4632L242.758 88.3977M242.758 88.3977L250.222 84.3263M242.758 88.3977L240.206 86.6382M240.206 86.6382L248.432 82.6631M240.206 86.6382L238.091 84.3148M238.091 84.3148L247.097 80.5283M238.091 84.3148L236.563 81.5774M236.563 81.5774L246.313 78.0585M236.563 81.5774L235.731 78.6168M235.731 78.6168L246.137 75.4241M235.731 78.6168L235.643 75.6349M235.643 75.6349L246.577 72.8061M235.643 75.6349L236.312 72.837M226.583 84.5323L236.312 72.837M226.583 84.5323L227.646 82.2772M227.646 82.2772L227.774 82.127L237.688 70.4163M236.312 72.837L247.606 70.3835M236.312 72.837L237.688 70.4163M252.196 94.2141L255.584 86.8615M255.269 87.0589L255.578 86.8644L255.584 86.8615M255.584 86.8615L255.822 86.7114M255.42 86.5593L255.478 86.5815L255.675 86.6565H255.678L255.822 86.7114M255.42 86.5593L255.29 86.5112L254.204 86.0983M254.204 86.0983L252.35 85.3956M252.35 85.3956L250.222 84.3263M250.222 84.3263L255.472 86.335L255.774 86.4496L260.223 88.1503M250.222 84.3263L248.432 82.6631M248.432 82.6631L248.768 82.7979L255.896 85.6517L255.936 85.668L259.186 86.9693M248.432 82.6631L247.097 80.5283M247.097 80.5283L256.548 84.5804L256.62 84.6112L257.876 85.1493L258.133 85.2599L258.568 85.4457M247.097 80.5283L246.313 78.0585M246.313 78.0585L258.418 83.6795M246.313 78.0585L246.137 75.4241M246.137 75.4241L258.747 81.7901M246.137 75.4241L246.577 72.8061M246.577 72.8061L259.531 79.9084M246.577 72.8061L247.606 70.3835M247.606 70.3835L260.72 78.1634M247.606 70.3835L249.155 68.3247M237.688 70.4163L249.155 68.3247M237.688 70.4163L239.668 68.5278M255.822 86.7114L260.629 88.5324M260.629 88.5324L272.605 99.7879M260.629 88.5324L260.223 88.1503M260.223 88.1503L259.186 86.9693M259.186 86.9693L260.718 88.4198L260.976 88.6643L272.211 99.3018M259.186 86.9693L258.568 85.4457M258.568 85.4457L272.153 98.5809M258.568 85.4457L258.531 85.0097L258.519 84.8721L258.418 83.6795M258.418 83.6795L272.438 97.6714M258.418 83.6795L258.747 81.7901M258.747 81.7901L273.051 96.6367M258.747 81.7901L259.531 79.9084M259.531 79.9084L273.946 95.5452L275.063 94.4759M259.531 79.9084L260.72 78.1634M260.72 78.1634L275.063 94.4759M260.72 78.1634L262.23 76.6764M249.155 68.3247L262.23 76.6764M249.155 68.3247L251.107 66.7626M239.668 68.5278L251.107 66.7626M239.668 68.5278L242.125 67.3074M262.23 76.6764L276.328 93.4989M262.23 76.6764L263.956 75.5445M251.107 66.7626L251.277 66.8781L263.956 75.5445M251.107 66.7626L253.339 65.8117M272.605 99.7879L277.48 105.433L286.953 116.456M272.605 99.7879L272.211 99.3018M272.211 99.3018L272.153 98.5809M272.153 98.5809L287.198 116.379M272.153 98.5809L272.438 97.6714M272.438 97.6714L287.647 116.137M272.438 97.6714L273.051 96.6367M273.051 96.6367L288.268 115.747M273.051 96.6367L273.946 95.5462L289.018 115.237M275.063 94.4759L289.847 114.64M275.063 94.4759L276.328 93.4989M276.328 93.4989L290.697 113.998M276.328 93.4989L277.649 92.6799M263.956 75.5445L277.649 92.6799M263.956 75.5445L265.782 74.8505M253.339 65.8117L265.782 74.8505M253.339 65.8117L242.125 67.3074M253.339 65.8117L255.696 65.5345M253.339 65.8117L244.891 66.8377L242.125 67.3074M277.649 92.6799L291.511 113.355M277.649 92.6799L278.94 92.0792M265.782 74.8505L278.94 92.0792M265.782 74.8505L267.582 74.6397M255.696 65.5345L267.582 74.6397M255.696 65.5345L258.016 65.9483M278.94 92.0792L292.232 112.755M278.94 92.0792L280.11 91.7356M267.582 74.6397L280.11 91.7356M267.582 74.6397L269.232 74.9265M286.953 116.456L287.198 116.379M286.953 116.456L302.42 132.005L302.67 132.149M287.198 116.379L302.67 132.149M287.198 116.379L287.647 116.137M287.647 116.137L302.998 132.179M287.647 116.137L288.268 115.747M288.268 115.747L303.379 132.095M288.268 115.747L289.018 115.237M289.018 115.237L303.79 131.903M289.018 115.237L289.847 114.64M289.847 114.64L304.2 131.613M289.847 114.64L290.697 113.998M290.697 113.998L304.583 131.247M290.697 113.998L291.511 113.355M291.511 113.355L304.912 130.831M291.511 113.355L292.232 112.755M292.232 112.755L305.165 130.393M292.232 112.755L292.812 112.239M280.11 91.7356L292.812 112.239M280.11 91.7356L281.081 91.6731M269.232 74.9265L258.016 65.9483M269.232 74.9265L281.081 91.6731M269.232 74.9265L270.62 75.6917M258.016 65.9483L260.14 67.0263L270.62 75.6917M292.812 112.239L305.324 129.961M292.812 112.239L293.209 111.841M281.081 91.6731L293.209 111.841M281.081 91.6731L281.782 91.8964M270.62 75.6917L281.782 91.8964M270.62 75.6917L271.65 76.8814L282.17 92.3882M293.209 111.841L305.38 129.567M293.209 111.841L293.398 111.591M281.782 91.8964L293.398 111.591M281.782 91.8964L282.17 92.3882M282.17 92.3882L293.365 111.503M293.398 111.591L305.327 129.236M293.398 111.591L293.365 111.503M302.67 132.149L302.998 132.179M302.67 132.149L317.509 139.122M302.998 132.179L317.509 139.122M302.998 132.179L303.379 132.095M303.379 132.095L303.76 132.285L317.509 139.122M303.379 132.095L303.79 131.903M303.79 131.903L317.509 139.122M303.79 131.903L304.2 131.613M304.2 131.613L317.509 139.122M304.2 131.613L304.583 131.247M304.583 131.247L317.509 139.122M304.583 131.247L304.912 130.831M304.912 130.831L317.509 139.122M304.912 130.831L305.165 130.393M305.165 130.393L317.509 139.122M305.165 130.393L305.324 129.961M305.324 129.961L317.509 139.122M305.324 129.961L305.38 129.567M305.38 129.567L317.509 139.122M305.38 129.567L305.327 129.236M305.327 129.236L305.168 128.991M305.327 129.236L317.509 139.122M293.365 111.503L305.168 128.991M317.509 139.122L305.168 128.991M3.22232 278.457L7.2706 257.992M17.6175 263.048L7.2706 257.992M17.6175 263.048L29.2358 265.028M17.6175 263.048L21.8457 237.745M7.2706 257.992L16.6126 235.223M7.2706 257.992L-1.18304 250.207M-1.18304 250.207L12.3054 231.301M-1.18304 250.207L-7.17364 240.264M29.2358 265.028L41.2651 263.791M29.2358 265.028L27.7824 238.724M21.8457 237.745L16.6126 235.223M21.8457 237.745L27.7815 238.724M21.8457 237.745L29.0241 214.067M16.6126 235.223L29.0241 214.067M16.6126 235.223L12.3054 231.301M41.2651 263.791L52.8084 259.381M41.2651 263.791L33.9145 238.066M27.7815 238.724L29.2021 213.842M27.7815 238.724L33.9145 238.066M29.0241 214.067L29.0847 213.95M12.3054 231.301L9.23988 226.269M12.3054 231.301L29.0847 213.95M-7.17364 240.264L9.23988 226.269M-7.17364 240.264L-10.2998 228.862L7.63539 220.503M29.2021 213.842L29.0847 213.95M29.2021 213.842L7.57571 214.254M29.2021 213.842L29.1088 213.731M29.2021 213.842L33.1349 190.963M29.2021 213.842L29.3195 213.734M29.2021 213.842L53.5553 215.283M29.2021 213.842L29.2955 213.954M33.9145 238.066L39.7184 235.831M33.9145 238.066L29.3301 214.074M29.0847 213.95L28.9644 213.996M9.23988 226.269L28.9644 213.996M9.23988 226.269L7.63539 220.503M28.9644 213.996L7.63539 220.503M7.63539 220.503L7.57571 214.254M7.57571 214.254L-10.3807 216.693M7.57571 214.254L9.06855 208.052M29.1088 213.731L29.077 213.61L27.049 191.662M29.1088 213.731L29.001 213.679M29.1088 213.731L16.1583 197.583M33.1349 190.963L27.049 191.662M33.1349 190.963L39.7194 171.01M33.1349 190.963L39.0543 191.88M29.3195 213.734L29.4399 213.688M29.3195 213.734L29.3811 213.617M29.3195 213.734L48.6562 198.207M53.5553 215.283L53.4494 208.993M53.5553 215.283L80.1607 218.766M53.5553 215.283L52.0808 221.548M29.2955 213.954L29.3301 214.074M29.2955 213.954L29.4052 214.006M29.2955 213.954L44.9284 232.134M-10.3807 216.693L-7.45565 204.633M-7.45565 204.633L9.06855 208.052M9.06855 208.052L29.001 213.679M9.06855 208.052L11.9791 202.414M29.001 213.679L11.9791 202.414M11.9791 202.414L16.1583 197.583M16.1583 197.583L21.3077 193.909M21.3077 193.909L29.0751 213.61M21.3077 193.909L27.049 191.662M21.3077 193.909L16.5635 176.86M27.049 191.662L27.1366 189.592L27.1395 189.554L27.8681 172.41M16.5635 176.86L27.8681 172.41M27.8681 172.41L36.5489 171.384L36.5874 171.38L39.7194 171.01M39.7194 171.01L51.2713 172.75M51.2713 172.75L39.0543 191.88M51.2713 172.75L61.6807 177.555M39.0543 191.88L29.3811 213.617M39.0543 191.88L44.3047 194.336M78.7353 166.739L61.6807 177.555M61.6807 177.555L44.3047 194.336M61.6807 177.555L70.3076 185.141M29.3811 213.617L44.3047 194.336M44.3047 194.336L48.6562 198.207M70.3076 185.141L48.6571 198.207M70.3076 185.141L76.5369 194.993M29.4399 213.688L51.7824 203.215M29.4399 213.688L53.4494 208.993M48.6562 198.207L51.7824 203.215M51.7824 203.215L53.4494 208.993M51.7824 203.215L76.5369 194.993M53.4494 208.993L79.9028 206.436M76.5369 194.993L79.9028 206.436M79.9028 206.436L80.1607 218.766M80.1607 218.766L77.3021 231.066M52.0808 221.548L77.304 231.066M52.0808 221.548L29.4052 214.006M52.0808 221.548L49.1548 227.251M29.4052 214.006L49.1548 227.251M49.1548 227.251L71.503 242.411L63.1351 252.079M49.1548 227.251L44.9284 232.134M63.1351 252.079L44.9284 232.134M63.1351 252.079L52.8084 259.381M29.3301 214.074L39.7184 235.831M44.9284 232.134L39.7184 235.831M39.7184 235.831L52.8084 259.381" stroke="url(#paint0_linear_378_4558)" stroke-width="0.9625" stroke-linecap="round" stroke-linejoin="round"/>
<defs>
<linearGradient id="paint0_linear_378_4558" x1="30.7999" y1="256.343" x2="259.394" y2="-35.2941" gradientUnits="userSpaceOnUse">
<stop stop-color="#E9EBF1" stop-opacity="0"/>
<stop offset="1" stop-color="#E9EBF1"/>
</linearGradient>
</defs>
</svg>
