<svg width="32" height="33" viewBox="0 0 32 33" fill="none" xmlns="http://www.w3.org/2000/svg">
<path d="M12.498 24.3604H19.502C18.8404 25.9428 17.5823 27.2009 16 27.8624C14.4177 27.2009 13.1596 25.9428 12.498 24.3604ZM22 19.1654L24 21.4334V23.3604H8V21.4334L10 19.1654V13.3604C10 9.87743 12.504 6.91343 16 5.81543C19.496 6.91343 22 9.87743 22 13.3604V19.1654ZM16 15.3604C16.5304 15.3604 17.0391 15.1497 17.4142 14.7746C17.7893 14.3996 18 13.8909 18 13.3604C18 12.83 17.7893 12.3213 17.4142 11.9462C17.0391 11.5711 16.5304 11.3604 16 11.3604C15.4696 11.3604 14.9609 11.5711 14.5858 11.9462C14.2107 12.3213 14 12.83 14 13.3604C14 13.8909 14.2107 14.3996 14.5858 14.7746C14.9609 15.1497 15.4696 15.3604 16 15.3604Z" fill="#9945FF"/>
<path d="M12.498 24.3604H19.502C18.8404 25.9428 17.5823 27.2009 16 27.8624C14.4177 27.2009 13.1596 25.9428 12.498 24.3604ZM22 19.1654L24 21.4334V23.3604H8V21.4334L10 19.1654V13.3604C10 9.87743 12.504 6.91343 16 5.81543C19.496 6.91343 22 9.87743 22 13.3604V19.1654ZM16 15.3604C16.5304 15.3604 17.0391 15.1497 17.4142 14.7746C17.7893 14.3996 18 13.8909 18 13.3604C18 12.83 17.7893 12.3213 17.4142 11.9462C17.0391 11.5711 16.5304 11.3604 16 11.3604C15.4696 11.3604 14.9609 11.5711 14.5858 11.9462C14.2107 12.3213 14 12.83 14 13.3604C14 13.8909 14.2107 14.3996 14.5858 14.7746C14.9609 15.1497 15.4696 15.3604 16 15.3604Z" fill="url(#paint0_linear_378_4545)" fill-opacity="0.24"/>
<defs>
<linearGradient id="paint0_linear_378_4545" x1="16" y1="5.81543" x2="16" y2="27.8624" gradientUnits="userSpaceOnUse">
<stop stop-color="white"/>
<stop offset="1" stop-color="white" stop-opacity="0"/>
</linearGradient>
</defs>
</svg>
