<svg width="48" height="48" viewBox="0 0 48 48" fill="none" xmlns="http://www.w3.org/2000/svg">
<g id="7564187_figma_logo_brand_icon (1) 1">
<path id="path0_fill" d="M17.3337 44.0003C21.0137 44.0003 24.0003 41.0137 24.0003 37.3337V30.667H17.3337C13.6537 30.667 10.667 33.6537 10.667 37.3337C10.667 41.0137 13.6537 44.0003 17.3337 44.0003Z" fill="#0ACF83"/>
<path id="path1_fill" d="M10.667 23.9997C10.667 20.3197 13.6537 17.333 17.3337 17.333H24.0003V30.6663H17.3337C13.6537 30.6663 10.667 27.6797 10.667 23.9997Z" fill="#A259FF"/>
<path id="path1_fill_1_" d="M10.667 10.6667C10.667 6.98667 13.6537 4 17.3337 4H24.0003V17.3333H17.3337C13.6537 17.3333 10.667 14.3467 10.667 10.6667Z" fill="#F24E1E"/>
<path id="path2_fill" d="M24 4H30.6667C34.3467 4 37.3333 6.98667 37.3333 10.6667C37.3333 14.3467 34.3467 17.3333 30.6667 17.3333H24V4Z" fill="#FF7262"/>
<path id="path3_fill" d="M37.3333 23.9997C37.3333 27.6797 34.3467 30.6663 30.6667 30.6663C26.9867 30.6663 24 27.6797 24 23.9997C24 20.3197 26.9867 17.333 30.6667 17.333C34.3467 17.333 37.3333 20.3197 37.3333 23.9997Z" fill="#1ABCFE"/>
</g>
</svg>
