<svg width="34" height="34" viewBox="0 0 34 34" fill="none" xmlns="http://www.w3.org/2000/svg">
<g id="bulb">
<path id="Vector" d="M7.28556 19.833C6.25775 18.1446 5.6665 16.1664 5.6665 14.0514C5.6665 7.85564 10.7406 2.83301 16.9998 2.83301C23.2591 2.83301 28.3332 7.85564 28.3332 14.0514C28.3332 16.1664 27.742 18.1446 26.7141 19.833" stroke="#9945FF" stroke-width="1.5" stroke-linecap="round"/>
<path id="Vector_2" d="M19.8332 14.167C18.9655 15.0782 18.0072 15.5837 16.9998 15.5837C15.9924 15.5837 15.0342 15.0782 14.1665 14.167" stroke="#9945FF" stroke-width="1.5" stroke-linecap="round"/>
<path id="Vector_3" d="M10.4592 24.2228C10.3291 23.8309 10.264 23.635 10.2716 23.4763C10.2876 23.1406 10.4993 22.8458 10.8116 22.7244C10.9592 22.667 11.165 22.667 11.5766 22.667H22.4237C22.8354 22.667 23.0411 22.667 23.1887 22.7244C23.5011 22.8458 23.7128 23.1406 23.7288 23.4763C23.7363 23.635 23.6712 23.8309 23.5411 24.2228C23.3005 24.947 23.1802 25.3092 22.9948 25.6023C22.6062 26.2166 21.997 26.6573 21.2935 26.8331C20.9576 26.917 20.5772 26.917 19.8166 26.917H14.1837C13.423 26.917 13.0427 26.917 12.7069 26.8331C12.0033 26.6573 11.3941 26.2166 11.0055 25.6023C10.82 25.3092 10.6998 24.947 10.4592 24.2228Z" stroke="#9945FF" stroke-width="1.5"/>
<path id="Vector_4" d="M21.25 26.917L21.0668 27.833C20.8665 28.8347 20.7663 29.3355 20.5418 29.7313C20.1949 30.3432 19.6324 30.8042 18.9643 31.0245C18.5323 31.167 18.0216 31.167 17 31.167C15.9784 31.167 15.4677 31.167 15.0357 31.0245C14.3676 30.8042 13.8052 30.3432 13.4581 29.7313C13.2337 29.3355 13.1335 28.8347 12.9332 27.833L12.75 26.917" stroke="#9945FF" stroke-width="1.5"/>
<path id="Vector_5" d="M17 21.958V15.583" stroke="#9945FF" stroke-width="1.5" stroke-linecap="round" stroke-linejoin="round"/>
</g>
</svg>
