<svg width="80" height="81" viewBox="0 0 80 81" fill="none" xmlns="http://www.w3.org/2000/svg">
<path d="M56.3361 54.9688C57.9243 53.3998 58.8333 51.5782 58.8333 49.6354C58.8333 43.7443 50.476 38.9688 40.1667 38.9688C29.8574 38.9688 21.5 43.7443 21.5 49.6354C21.5 51.5782 22.409 53.3998 23.9973 54.9688C27.2248 51.7804 33.2574 49.6354 40.1667 49.6354C47.076 49.6354 53.1085 51.7804 56.3361 54.9688Z" fill="url(#paint0_linear_390_2734)"/>
<path d="M40.1667 60.3015C50.476 60.3015 58.8333 55.5258 58.8333 49.6348V60.3015C58.8333 66.1925 50.476 70.9681 40.1667 70.9681C29.8574 70.9681 21.5 66.1925 21.5 60.3015V49.6348C21.5 55.5258 29.8574 60.3015 40.1667 60.3015Z" fill="url(#paint1_linear_390_2734)"/>
<path d="M56.3361 40.9688C57.9243 39.3998 58.8333 37.5782 58.8333 35.6354C58.8333 29.7443 50.476 24.9688 40.1667 24.9688C29.8574 24.9688 21.5 29.7443 21.5 35.6354C21.5 37.5782 22.409 39.3998 23.9973 40.9688C27.2248 37.7804 33.2574 35.6354 40.1667 35.6354C47.076 35.6354 53.1085 37.7804 56.3361 40.9688Z" fill="url(#paint2_linear_390_2734)"/>
<path d="M40.1667 46.3015C50.476 46.3015 58.8333 41.5258 58.8333 35.6348V46.3015C58.8333 52.1925 50.476 56.9681 40.1667 56.9681C29.8574 56.9681 21.5 52.1925 21.5 46.3015V35.6348C21.5 41.5258 29.8574 46.3015 40.1667 46.3015Z" fill="url(#paint3_linear_390_2734)"/>
<path d="M56.3361 26.9688C57.9243 25.3998 58.8333 23.5783 58.8333 21.6355C58.8333 15.7444 50.476 10.9688 40.1667 10.9688C29.8574 10.9688 21.5 15.7444 21.5 21.6355C21.5 23.5783 22.409 25.3998 23.9973 26.9688C27.2248 23.7804 33.2574 21.6355 40.1667 21.6355C47.076 21.6355 53.1085 23.7804 56.3361 26.9688Z" fill="url(#paint4_linear_390_2734)"/>
<path d="M40.1667 32.3015C50.476 32.3015 58.8333 27.5258 58.8333 21.6348V32.3015C58.8333 38.1925 50.476 42.9681 40.1667 42.9681C29.8574 42.9681 21.5 38.1925 21.5 32.3015V21.6348C21.5 27.5258 29.8574 32.3015 40.1667 32.3015Z" fill="url(#paint5_linear_390_2734)"/>
<defs>
<linearGradient id="paint0_linear_390_2734" x1="52.3452" y1="28.0576" x2="50.023" y2="54.9336" gradientUnits="userSpaceOnUse">
<stop stop-color="#75848F"/>
<stop offset="1" stop-color="#222629" stop-opacity="0.5"/>
</linearGradient>
<linearGradient id="paint1_linear_390_2734" x1="52.3452" y1="35.0865" x2="48.2405" y2="70.7159" gradientUnits="userSpaceOnUse">
<stop stop-color="#75848F"/>
<stop offset="1" stop-color="#222629" stop-opacity="0.5"/>
</linearGradient>
<linearGradient id="paint2_linear_390_2734" x1="52.3452" y1="14.0576" x2="50.023" y2="40.9336" gradientUnits="userSpaceOnUse">
<stop stop-color="#75848F"/>
<stop offset="1" stop-color="#222629" stop-opacity="0.5"/>
</linearGradient>
<linearGradient id="paint3_linear_390_2734" x1="52.3452" y1="21.0865" x2="48.2405" y2="56.7159" gradientUnits="userSpaceOnUse">
<stop stop-color="#75848F"/>
<stop offset="1" stop-color="#222629" stop-opacity="0.5"/>
</linearGradient>
<linearGradient id="paint4_linear_390_2734" x1="52.3452" y1="0.0575108" x2="50.023" y2="26.9335" gradientUnits="userSpaceOnUse">
<stop stop-color="#75848F"/>
<stop offset="1" stop-color="#222629" stop-opacity="0.5"/>
</linearGradient>
<linearGradient id="paint5_linear_390_2734" x1="52.3452" y1="7.08645" x2="48.2405" y2="42.7159" gradientUnits="userSpaceOnUse">
<stop stop-color="#75848F"/>
<stop offset="1" stop-color="#222629" stop-opacity="0.5"/>
</linearGradient>
</defs>
</svg>
