<svg width="71" height="45" viewBox="0 0 71 45" fill="none" xmlns="http://www.w3.org/2000/svg">
<g id="Logo-colored" clip-path="url(#clip0_323_5371)">
<path id="Vector" d="M66.0268 5.9081C66.0268 5.9594 66.0268 6.02353 66.0137 6.06201C65.9481 6.56222 65.9481 7.06243 65.9874 7.57547C66.0137 7.70373 66.0399 7.83199 66.1449 7.9346C66.3154 8.12698 66.5777 8.08851 66.6827 7.85764C66.7352 7.74221 66.7352 7.62677 66.7089 7.51134C66.5777 7.02395 66.5515 6.51092 66.5384 6.0107C66.5384 5.98505 66.5384 5.94657 66.5384 5.9081C66.6827 5.89527 66.8139 5.88244 66.9319 5.88244C67.0238 5.86962 67.1025 5.85679 67.1681 5.81831C67.3648 5.71571 67.3648 5.49767 67.1549 5.39506C67.0762 5.35658 66.9713 5.34375 66.8795 5.34375C66.5515 5.35658 66.2236 5.35658 65.8956 5.35658C65.7776 5.35658 65.6595 5.36941 65.5414 5.38223C65.4758 5.39506 65.3971 5.39506 65.3447 5.43354C65.2528 5.47201 65.2004 5.53614 65.2004 5.62592C65.2135 5.71571 65.2528 5.76701 65.3447 5.80549C65.3971 5.84397 65.4627 5.85679 65.5283 5.85679C65.6857 5.86962 65.8563 5.89527 66.0268 5.9081ZM69.6342 6.49809C69.6342 6.51092 69.6473 6.52374 69.6473 6.52374C69.6998 6.87004 69.7523 7.20352 69.7916 7.53699C69.8048 7.65242 69.8179 7.75503 69.8966 7.84481C70.0671 8.06285 70.3295 8.0372 70.4475 7.80634C70.5 7.6909 70.5131 7.57547 70.4869 7.44721C70.4082 7.06243 70.3688 6.67765 70.2901 6.3057C70.2376 6.07483 70.1721 5.85679 70.1065 5.65158C70.0671 5.52332 69.9753 5.43353 69.8179 5.42071C69.6605 5.39506 69.5424 5.47201 69.4768 5.58745C69.3981 5.69005 69.3325 5.79266 69.28 5.9081C69.1882 6.11331 69.1095 6.31853 69.0046 6.51092C68.9914 6.56222 68.9783 6.6007 68.9521 6.63917C68.939 6.61352 68.9259 6.6007 68.9259 6.6007C68.7553 6.28005 68.5979 5.9594 68.4274 5.65158C68.4011 5.62592 68.388 5.60027 68.3749 5.57462C68.2962 5.45919 68.2044 5.39506 68.0601 5.39506C67.9289 5.40788 67.8239 5.48484 67.7584 5.60027C67.7321 5.65158 67.7321 5.69005 67.719 5.74136C67.6665 6.15179 67.6009 6.56222 67.5485 6.97265C67.5222 7.20352 67.5091 7.43438 67.5091 7.66525C67.496 7.71655 67.5091 7.78068 67.5353 7.83199C67.5616 7.93459 67.6403 7.99873 67.7452 8.01155C67.8764 8.02438 67.9682 7.9859 68.0076 7.88329C68.0469 7.80634 68.0601 7.74221 68.0732 7.67808C68.1257 7.44721 68.165 7.22917 68.2044 7.01113C68.2306 6.88287 68.2437 6.78026 68.2831 6.63917C68.3093 6.69048 68.3355 6.72896 68.3618 6.76743C68.4798 6.92135 68.5979 7.07526 68.7422 7.20352C68.8865 7.30612 69.0046 7.2933 69.1226 7.17786C69.1489 7.15221 69.162 7.13939 69.1882 7.11373C69.3063 6.93417 69.4506 6.75461 69.5686 6.57504C69.5949 6.54939 69.608 6.52374 69.6342 6.49809Z" fill="#4C1D95"/>
<path id="Vector_2" d="M39.4088 6.16078C39.3176 6.40453 39.3002 6.58014 39.3423 6.7261C39.3888 6.92458 39.5095 6.98956 39.6733 6.93908C41.2141 6.56655 44.5928 7.62395 45.8437 7.91866C46.1387 7.98054 46.3787 7.60819 46.1774 7.27435C45.8836 6.95105 42.5064 5.56688 41.2178 5.49141C40.7127 5.4635 39.8097 5.33686 39.4088 6.16078Z" fill="#4C1D95"/>
<path id="Vector_3" d="M52.6133 1.68026C52.7775 1.77293 52.8693 1.86133 52.9146 1.9601C52.9821 2.08966 52.9465 2.1793 52.8331 2.22504C51.8146 2.71106 50.4593 4.80347 49.9122 5.52512C49.7796 5.69113 49.4737 5.59466 49.4275 5.32166C49.437 5.01298 50.6384 2.74225 51.3089 2.12378C51.5724 1.88231 52.0077 1.40851 52.6133 1.68026Z" fill="#4C1D95"/>
<path id="Vector_4" d="M44.5022 0.649796C44.6995 0.504419 44.9045 0.453474 45.0092 0.547951C46.5459 1.8329 47.3608 3.86773 47.8654 5.73057C47.8844 5.77397 47.8856 5.83625 47.8704 5.90122C47.8641 5.95675 47.8226 6.01541 47.7567 6.0608C47.6863 6.11091 47.6257 6.12617 47.5972 6.08299C46.9237 5.18732 43.077 1.70242 44.5022 0.649796Z" fill="#4C1D95"/>
<path id="Vector_5" d="M11.961 22.9279C12.3293 22.6598 12.7297 22.4366 13.1534 22.2634C13.5967 22.1395 14.0692 22.16 14.4995 22.322C14.9297 22.484 15.2944 22.7785 15.5382 23.1611C15.7563 23.5427 15.8416 23.9833 15.7814 24.4165C15.7212 24.8496 15.5187 25.2519 15.2043 25.5628C14.9606 25.8148 14.6839 26.0343 14.3816 26.2157C13.0342 27.0668 11.6748 27.8712 10.3155 28.7223C10.0373 28.9353 9.74225 29.1264 9.43308 29.2936C8.96281 29.5229 8.42537 29.5843 7.91368 29.4672C7.402 29.3502 6.94826 29.0619 6.63092 28.6524C6.39369 28.3624 6.19348 28.0453 6.03471 27.708C4.74691 25.0615 3.41142 22.4266 2.17131 19.7334C1.59895 18.5676 1.13391 17.2268 0.680798 15.9327C0.484759 15.5567 0.446477 15.1208 0.574104 14.7176C0.70173 14.3144 0.985195 13.9758 1.3642 13.7738C1.74321 13.5718 2.18785 13.5224 2.60357 13.636C3.01929 13.7496 3.37329 14.0173 3.59027 14.3821C4.25722 15.2487 4.84761 16.1692 5.35504 17.1336C6.64284 19.4653 7.87103 21.797 9.11113 24.0588C9.18334 24.1838 9.26296 24.3044 9.34961 24.4202C10.283 24.0365 11.1609 23.5348 11.961 22.9279Z" fill="#4C1D95"/>
<path id="Vector_6" d="M25.2761 22.1142C22.3309 25.4835 17.3943 24.6324 14.9141 20.2954C13.1493 17.2175 12.8393 12.1343 16.6789 8.92819C17.4988 8.25696 18.4792 7.79971 19.5287 7.59909C20.8155 7.41872 22.1277 7.64068 23.2777 8.23326C24.4277 8.82584 25.3567 9.7587 25.932 10.8985C28.0306 14.6293 27.7325 19.386 25.2761 22.1142ZM24.0837 14.2562C23.7708 13.3394 23.1431 12.5567 22.307 12.041C21.8339 11.7113 21.259 11.551 20.6792 11.5871C20.0993 11.6232 19.5499 11.8535 19.1233 12.2392C17.4182 13.7199 17.0604 17.2292 18.3005 19.3161C18.4586 19.6564 18.6907 19.9588 18.9808 20.2022C19.2709 20.4456 19.6119 20.6241 19.9799 20.7251C20.3479 20.8262 20.734 20.8474 21.1113 20.7873C21.4886 20.7271 21.8478 20.5871 22.164 20.377C23.0883 19.6763 23.7664 18.7115 24.104 17.6167C24.4417 16.5218 24.4221 15.3513 24.048 14.2679L24.0837 14.2562Z" fill="#4C1D95"/>
<path id="Vector_7" d="M37.2956 15.7256C36.9941 15.789 36.6826 15.7928 36.3795 15.7367C36.0765 15.6806 35.7879 15.5659 35.5309 15.3992C35.306 15.2734 35.1124 15.1005 34.964 14.8928C34.8157 14.6851 34.7163 14.4479 34.673 14.1981C34.6296 13.9484 34.6435 13.6924 34.7134 13.4485C34.7834 13.2046 34.9079 12.9789 35.0778 12.7876C35.3738 12.4032 35.794 12.128 36.2702 12.0065C37.5135 11.6537 38.7934 11.4386 40.0859 11.3653C40.3699 11.333 40.6576 11.3565 40.9321 11.4344C41.2067 11.5124 41.4625 11.6431 41.6847 11.8191C41.9068 11.995 42.0908 12.2126 42.2258 12.459C42.3607 12.7054 42.444 12.9757 42.4707 13.254C42.8433 14.621 42.8841 16.0543 42.5899 17.4395C41.5168 21.9164 37.8203 23.4553 33.6707 22.0213C32.5059 21.6379 31.4846 20.9235 30.7374 19.9694C29.7408 18.8204 29.0342 17.4587 28.6745 15.9938C28.3831 14.6893 28.415 13.3357 28.7677 12.0458C29.1203 10.7559 29.7834 9.56713 30.7016 8.57883C31.573 7.50466 32.704 6.65929 33.9927 6.11884C34.807 5.67999 35.7599 5.55521 36.6637 5.76908C36.8687 5.82456 37.0548 5.93266 37.2027 6.08217C37.3506 6.23169 37.4549 6.41716 37.5048 6.61937C37.5547 6.82157 37.5483 7.03314 37.4864 7.23214C37.4244 7.43113 37.3092 7.6103 37.1526 7.75106C36.8548 8.01461 36.5313 8.24891 36.1867 8.45058C35.1266 9.11065 34.2041 9.9612 33.468 10.9572C32.9855 11.6017 32.6532 12.3418 32.4946 13.1253C32.3359 13.9088 32.3548 14.7168 32.5499 15.4925C32.8203 16.5501 33.4204 17.4994 34.2669 18.2089C36.8902 20.5407 40.3005 18.2905 39.7043 15.1077C38.8339 15.3176 38.0707 15.5391 37.2956 15.7256Z" fill="#4C1D95"/>
<path id="Vector_8" d="M53.3218 22.3007C49.4465 24.6325 45.0346 22.3007 44.0687 17.4041C43.3652 13.9065 44.7007 9.00979 49.375 7.1444C50.3695 6.75605 51.4482 6.6197 52.511 6.748C53.7879 6.97655 54.9593 7.59118 55.8599 8.50525C56.7605 9.41931 57.3451 10.5867 57.531 11.8429C58.318 16.005 56.5294 20.447 53.3218 22.3007ZM54.6693 14.4544C54.6681 13.4859 54.3177 12.5487 53.6796 11.8079C53.3385 11.3497 52.8454 11.0214 52.2844 10.8789C51.7233 10.7365 51.1292 10.7887 50.6031 11.0268C48.5045 11.9128 47.0259 15.1306 47.5625 17.4974C47.6035 17.8688 47.7269 18.227 47.9242 18.5469C48.1215 18.8668 48.3879 19.1407 48.7048 19.3495C49.0216 19.5582 49.3813 19.6968 49.7586 19.7555C50.136 19.8141 50.5219 19.7915 50.8893 19.6892C51.9986 19.3103 52.9591 18.6022 53.6367 17.6637C54.3144 16.7252 54.6754 15.6032 54.6693 14.4544Z" fill="#4C1D95"/>
<path id="Vector_9" d="M61.45 23.2805C61.3915 23.7072 61.1621 24.0937 60.8121 24.355C60.4621 24.6162 60.0203 24.7309 59.5839 24.6737C59.1475 24.6165 58.7522 24.3921 58.485 24.0499C58.2177 23.7078 58.1005 23.2758 58.159 22.8491C58.2175 22.4224 58.447 22.0359 58.7969 21.7746C59.1469 21.5133 59.5887 21.3987 60.0251 21.4559C60.4615 21.5131 60.8568 21.7374 61.1241 22.0796C61.3913 22.4218 61.5086 22.8538 61.45 23.2805ZM60.4126 7.55289C60.6394 7.21424 60.9721 6.95635 61.3611 6.81768C61.75 6.67901 62.1744 6.66699 62.5709 6.78342C62.974 6.88203 63.3301 7.11304 63.5798 7.43777C63.8294 7.76251 63.9573 8.16124 63.9422 8.5672C63.8896 9.21837 63.79 9.8651 63.6441 10.5025C63.2506 12.6594 62.869 14.8162 62.4517 16.9498C62.2609 17.8009 62.0105 18.617 61.7362 19.4797C61.6408 19.7494 61.4814 19.9931 61.2712 20.1909C61.1405 20.3397 60.9736 20.4538 60.7858 20.5227C60.598 20.5917 60.3955 20.6132 60.197 20.5853C59.9985 20.5574 59.8103 20.481 59.65 20.3632C59.4897 20.2453 59.3624 20.0898 59.2799 19.9111C59.1381 19.5905 59.0611 19.246 59.0533 18.8968C59.0533 17.4511 59.0533 15.9938 59.1487 14.5364C59.3108 12.4566 59.6296 10.3913 60.1026 8.35734C60.1583 8.08484 60.2632 7.82425 60.4126 7.58787V7.55289Z" fill="#4C1D95"/>
<path id="Vector_10" fill-rule="evenodd" clip-rule="evenodd" d="M6.92312 32.6491C6.78233 32.9564 6.74372 33.299 6.81252 33.6287C6.85829 34.0633 6.95882 34.4908 7.11182 34.9014C7.30284 35.4042 7.51659 35.9014 7.78015 36.5142C7.84076 36.6552 7.9041 36.8024 7.97038 36.9573C8.3258 37.7875 8.77176 38.8485 9.36661 40.384C9.53498 40.8202 9.68449 41.26 9.83505 41.7028C9.89587 41.8817 9.95691 42.0612 10.0194 42.2411C10.2434 42.8807 10.6287 43.4553 11.1395 43.9107C11.3564 44.161 11.6441 44.3434 11.9667 44.4346C12.2956 44.5276 12.6454 44.5217 12.9708 44.4177C13.2962 44.3136 13.582 44.1162 13.7911 43.8511C13.9961 43.5912 14.118 43.278 14.1417 42.9508C14.2747 42.3134 14.2293 41.6525 14.0101 41.038C13.6622 40.0177 13.2659 38.9959 12.8089 37.9965L12.8068 37.9921C12.055 36.4285 11.2908 34.8757 10.4905 33.3223L10.4845 33.3114C10.2502 32.9067 9.94567 32.5449 9.58467 32.2423C9.35031 31.9722 9.02704 31.79 8.67004 31.7272C8.30543 31.6631 7.92939 31.7277 7.60905 31.9096C7.30601 32.0788 7.06579 32.3377 6.92312 32.6491Z" fill="#4C1D95"/>
<path id="Vector_11" fill-rule="evenodd" clip-rule="evenodd" d="M18.4057 28.7986C17.2269 28.5001 15.9958 28.4566 14.7982 28.6712C13.8706 28.7605 12.9583 28.9697 12.3248 29.3841C12.0026 29.595 11.7421 29.8658 11.5972 30.21C11.4515 30.5561 11.4329 30.9519 11.5523 31.3929C11.7703 32.2007 12.0534 32.9861 12.3355 33.769L12.3812 33.8958L12.3823 33.8986C13.2317 36.173 14.0892 38.4397 14.9545 40.6986C15.0554 41.0546 15.1981 41.398 15.3797 41.7219L15.3831 41.7279C15.623 42.1303 15.9307 42.4902 16.2932 42.7925C16.4745 42.9587 16.6987 43.0737 16.9418 43.1251C17.1873 43.1769 17.4426 43.1619 17.6799 43.0815C17.9173 43.0012 18.1275 42.8587 18.2877 42.6695C18.4453 42.4834 18.5485 42.2592 18.5864 42.0206C18.7428 41.3724 18.6927 40.6929 18.4427 40.0733C18.3647 39.8648 18.3035 39.6517 18.239 39.4274C18.2175 39.3526 18.1957 39.2765 18.1727 39.199C20.1534 38.442 22.2609 37.4241 23.002 35.0561C23.2922 34.2378 23.3164 33.3517 23.0712 32.5193C22.8258 31.686 22.3223 30.9474 21.6301 30.4052C20.688 29.6462 19.5875 29.0978 18.4057 28.7986ZM15.1382 31.7031C15.1772 31.6921 15.2165 31.6819 15.2559 31.6724C16.5454 31.4742 17.8647 31.7383 18.9709 32.4159C19.4584 32.7474 19.6581 33.1157 19.6924 33.4701C19.7278 33.835 19.5921 34.2304 19.3195 34.6105C18.8044 35.3285 17.8644 35.9032 17.0153 36.0103C16.3963 34.6165 15.7677 33.1663 15.1382 31.7031Z" fill="#4C1D95"/>
<path id="Vector_12" d="M26.2647 26.2478C27.6685 25.6139 29.4074 25.5044 30.7681 25.9501C31.1108 26.0477 31.4081 26.2588 31.6092 26.5473C31.809 26.834 31.9012 27.1795 31.8704 27.5249C31.8684 27.7491 31.8121 27.9697 31.7062 28.1687C31.5984 28.3713 31.4423 28.5455 31.2511 28.6767C31.0599 28.8078 30.8392 28.8921 30.6077 28.9222C30.3761 28.9524 30.1406 28.9276 29.9209 28.8499L29.9042 28.844L29.8885 28.8359C29.7761 28.7784 29.6567 28.7351 29.5332 28.7069L29.5254 28.7052C28.5682 28.4566 27.6653 28.8685 27.3355 29.3746C27.1782 29.6159 27.1587 29.8595 27.2897 30.0811C27.43 30.3184 27.7741 30.5847 28.4704 30.7745C28.6619 30.8259 28.8582 30.8755 29.0573 30.9259C29.6079 31.0653 30.1801 31.2101 30.7334 31.4108L30.7355 31.4116C33.2881 32.3612 34.2386 34.3279 33.9132 36.1777C33.5913 38.007 32.0288 39.6718 29.6791 40.0645C28.8241 40.2498 27.9343 40.2137 27.0978 39.9598C26.2592 39.7051 25.5033 39.2404 24.9052 38.6116L24.8896 38.5952C24.7008 38.3583 24.5738 38.08 24.5175 37.7847C24.4657 37.5182 24.493 37.2428 24.596 36.9909C24.6984 36.7405 24.8716 36.5238 25.0951 36.3659C25.3312 36.1869 25.6158 36.0795 25.9137 36.0571C26.2106 36.0348 26.5077 36.0979 26.7684 36.2385C27.0288 36.3615 27.271 36.5184 27.4884 36.705L27.4925 36.7084C27.8771 37.0523 28.3424 37.1419 28.7886 37.0589C29.2413 36.9747 29.667 36.7128 29.9408 36.3653C30.2128 36.02 30.322 35.6098 30.1924 35.2116C30.062 34.8105 29.6699 34.3611 28.8084 33.9854C28.5832 33.8919 28.3497 33.8165 28.1068 33.7431C28.0413 33.7233 27.9747 33.7036 27.9073 33.6836C27.7277 33.6303 27.5429 33.5754 27.3617 33.5149C27.2369 33.4733 27.1131 33.4339 26.9905 33.3948C26.6554 33.2881 26.3287 33.1841 26.0143 33.0446C25.33 32.8168 24.7388 32.3794 24.3287 31.7971C23.9169 31.2125 23.7097 30.5134 23.7379 29.8042C23.7401 28.0759 24.8534 26.8852 26.2647 26.2478Z" fill="#4C1D95"/>
<path id="Vector_13" d="M44.0619 26.0629C43.7897 25.9329 43.4887 25.8712 43.1861 25.8833C42.8834 25.8955 42.5886 25.9811 42.3283 26.1326C42.0696 26.283 41.853 26.4936 41.6978 26.7457C41.5555 26.958 41.457 27.1954 41.4079 27.4447C41.3588 27.6938 41.36 27.9498 41.4113 28.1983C41.462 28.5177 41.5182 28.8283 41.5737 29.1346C41.6656 29.6415 41.755 30.137 41.814 30.6422L41.8162 30.655C41.9505 31.4473 42.0208 32.2486 42.0271 33.0516L42.0277 33.063C42.0736 33.9302 41.7714 34.7805 41.1859 35.4335L41.1766 35.4451C40.9861 35.6838 40.7314 35.866 40.4409 35.9713C40.1505 36.0766 39.8359 36.1008 39.5322 36.0412C39.2285 35.9816 38.9478 35.8406 38.7214 35.6339C38.495 35.4272 38.3317 35.1622 38.2502 34.8701C38.0762 34.2544 37.9755 33.6211 37.9499 32.9829L38.2471 28.3566C38.2515 28.2962 38.2565 28.2342 38.2616 28.1716C38.2729 28.0311 38.2845 27.888 38.2893 27.7545C38.2963 27.5581 38.2903 27.3561 38.2435 27.1649C38.1956 26.9695 38.1045 26.7836 37.9429 26.6253C37.7829 26.4686 37.5669 26.353 37.2951 26.2743C36.8036 26.1352 36.388 26.1396 36.0417 26.2833C35.6952 26.427 35.4578 26.6938 35.2898 27.002C35.1231 27.3076 35.016 27.6694 34.935 28.0318C34.8749 28.3007 34.8266 28.583 34.7807 28.8517C34.7648 28.9443 34.7493 29.0352 34.7336 29.1235L34.7332 29.1261C34.4876 30.5997 34.4145 32.0959 34.5153 33.5857C34.5341 34.3908 34.7058 35.1855 35.0218 35.9292C35.3783 36.8888 36.024 37.7202 36.8737 38.3137C37.7252 38.9084 38.7413 39.2361 39.7875 39.2534C40.8337 39.2707 41.8606 38.9768 42.7322 38.4107C43.6024 37.8454 44.2768 37.0352 44.6662 36.0873C45.2109 34.8798 45.4667 33.5666 45.4139 32.2478C45.3819 31.285 45.3283 30.3148 45.275 29.3495C45.2488 28.876 45.2227 28.4035 45.1993 27.9339C45.1875 27.463 45.0287 27.0069 44.7441 26.6268C44.568 26.3865 44.3336 26.1927 44.0619 26.0629Z" fill="#4C1D95"/>
<path id="Vector_14" d="M53.696 33.3177C53.6684 33.352 53.6393 33.3875 53.6089 33.4244C53.3875 32.1756 53.1823 30.9272 52.9768 29.6769C52.9031 29.2283 52.829 28.7778 52.7545 28.3286L52.7461 28.2785L52.7189 28.2352C52.6676 28.1537 52.6625 28.0738 52.6625 27.9034V27.8837L52.6594 27.8642C52.6038 27.5123 52.441 27.1848 52.1923 26.9246C51.9443 26.6651 51.6222 26.4845 51.2679 26.4061C50.9142 26.3208 50.5425 26.3396 50.1996 26.4602C49.8576 26.5805 49.5595 26.7967 49.3425 27.0817C49.1621 27.3004 49.0142 27.543 48.9034 27.8022C48.6519 28.3606 48.3982 28.9204 48.1438 29.4817L48.1394 29.4914C47.5043 30.8927 46.8649 32.3034 46.2441 33.7252L46.2422 33.7298C45.8611 34.6517 45.5465 35.6231 45.233 36.5915C45.1704 36.7848 45.1078 36.978 45.0447 37.1707C44.9315 37.4763 44.882 37.8009 44.899 38.1254C44.8784 38.4159 44.9495 38.7057 45.1029 38.9556C45.2593 39.2106 45.4936 39.4112 45.7727 39.5293C46.0685 39.6561 46.3992 39.683 46.7125 39.6058C47.0251 39.5287 47.3027 39.3523 47.5016 39.1043C47.7556 38.7988 47.9741 38.4656 48.1523 38.1126C48.6782 37.0608 49.1808 35.9962 49.6811 34.9362C49.8747 34.5262 50.0628 34.159 50.2768 33.7591C50.2915 33.8084 50.3065 33.8565 50.322 33.9047C50.5463 34.8702 50.9249 35.795 51.4438 36.6452C51.542 36.8253 51.6788 36.9827 51.8448 37.1066C52.0128 37.232 52.2067 37.32 52.413 37.3647C52.6193 37.4094 52.8331 37.4096 53.0395 37.3653C53.2456 37.3211 53.4401 37.233 53.6082 37.1082L53.9409 36.8647L56.5232 34.738L56.3705 35.6895C56.1609 36.9974 55.9529 38.2944 55.7319 39.5917C55.5873 40.1667 55.5875 40.7673 55.7325 41.3421C55.7953 41.6656 55.9553 41.9634 56.1921 42.1976C56.4309 42.4337 56.7367 42.5941 57.0699 42.6581C57.4031 42.722 57.7483 42.6866 58.0606 42.5563C58.3684 42.428 58.6302 42.2134 58.8132 41.9399C59.239 41.4234 59.504 40.7981 59.5768 40.1384C59.6864 39.2068 59.8102 38.2625 59.9341 37.3185C60.0768 36.2304 60.2195 35.1426 60.34 34.0757L60.3404 34.0724C60.4564 32.9045 60.5125 31.7318 60.5086 30.5584C60.534 30.1876 60.4396 29.8182 60.2384 29.5025C60.0365 29.1857 59.7375 28.9394 59.3841 28.7985C59.0165 28.6351 58.605 28.5914 58.2101 28.674C57.8178 28.756 57.4627 28.9582 57.1963 29.2511C56.72 29.6818 56.2732 30.1427 55.8587 30.6308L55.8559 30.6341C55.4034 31.1854 54.954 31.7475 54.5075 32.306C54.236 32.6455 53.9653 32.9842 53.696 33.3177Z" fill="#4C1D95"/>
</g>
<defs>
<clipPath id="clip0_323_5371">
<rect width="70" height="44" fill="white" transform="translate(0.5 0.5)"/>
</clipPath>
</defs>
</svg>
