<svg width="125" height="36" viewBox="0 0 125 36" fill="none" xmlns="http://www.w3.org/2000/svg">
<path d="M8.41 16.8847C9.14777 13.9194 10.8564 11.2861 13.2639 9.40424C15.6714 7.52234 18.6393 6.5 21.695 6.5C24.7507 6.5 27.7186 7.52234 30.1261 9.40424C32.5336 11.2861 34.2422 13.9194 34.98 16.8847H33.78C31.7557 16.8549 29.7729 17.4599 28.11 18.6147C28.014 18.6842 27.9138 18.7477 27.81 18.8047H27.67C27.5662 18.7477 27.466 18.6842 27.37 18.6147C25.6924 17.4866 23.7166 16.8841 21.695 16.8841C19.6734 16.8841 17.6976 17.4866 16.02 18.6147C15.924 18.6842 15.8238 18.7477 15.72 18.8047H15.58C15.4762 18.7477 15.376 18.6842 15.28 18.6147C13.6171 17.4599 11.6343 16.8549 9.61 16.8847H8.41ZM31.62 23.1547C32.236 22.675 32.9995 22.424 33.78 22.4447H35.39V19.2347H33.78C32.4052 19.2181 31.0619 19.646 29.95 20.4547C29.3243 20.916 28.5674 21.1649 27.79 21.1649C27.0126 21.1649 26.2557 20.916 25.63 20.4547C24.4899 19.6611 23.1341 19.2356 21.745 19.2356C20.3559 19.2356 19.0001 19.6611 17.86 20.4547C17.2343 20.916 16.4774 21.1649 15.7 21.1649C14.9226 21.1649 14.1657 20.916 13.54 20.4547C12.4144 19.6356 11.0518 19.2072 9.66 19.2347H8V22.4447H9.61C10.3905 22.424 11.154 22.675 11.77 23.1547C12.908 23.9489 14.2623 24.3747 15.65 24.3747C17.0377 24.3747 18.392 23.9489 19.53 23.1547C20.1468 22.6765 20.9097 22.4257 21.69 22.4447C22.4708 22.4223 23.2348 22.6735 23.85 23.1547C24.9901 23.9484 26.3459 24.3738 27.735 24.3738C29.1241 24.3738 30.4799 23.9484 31.62 23.1547ZM31.62 28.8947C32.236 28.415 32.9995 28.164 33.78 28.1847H35.39V24.9747H33.78C32.4052 24.9581 31.0619 25.386 29.95 26.1947C29.3243 26.656 28.5674 26.9049 27.79 26.9049C27.0126 26.9049 26.2557 26.656 25.63 26.1947C24.4899 25.4011 23.1341 24.9757 21.745 24.9757C20.3559 24.9757 19.0001 25.4011 17.86 26.1947C17.2343 26.656 16.4774 26.9049 15.7 26.9049C14.9226 26.9049 14.1657 26.656 13.54 26.1947C12.4144 25.3757 11.0518 24.9472 9.66 24.9747H8V28.1847H9.61C10.3905 28.164 11.154 28.415 11.77 28.8947C12.908 29.6889 14.2623 30.1147 15.65 30.1147C17.0377 30.1147 18.392 29.6889 19.53 28.8947C20.1468 28.4165 20.9097 28.1657 21.69 28.1847C22.4708 28.1623 23.2348 28.4135 23.85 28.8947C24.9901 29.6884 26.3459 30.1138 27.735 30.1138C29.1241 30.1138 30.4799 29.6884 31.62 28.8947Z" fill="#0EA5E9"/>
<path d="M50.4397 22.6855L53.0764 13.2871H55.2209L54.5295 16.9785L51.8928 25.9668H50.0999L50.4397 22.6855ZM49.1038 13.2871L50.9905 22.6738L51.1663 25.9668H49.0569L45.8459 13.2871H49.1038ZM57.635 22.5215L59.4749 13.2871H62.7444L59.5334 25.9668H57.4358L57.635 22.5215ZM55.5139 13.2871L58.1389 22.6152L58.5022 25.9668H56.6975L54.0608 16.9902L53.3928 13.2871H55.5139ZM70.2795 26.2012C69.2952 26.2012 68.4124 26.0449 67.6311 25.7324C66.8499 25.4121 66.1858 24.9707 65.6389 24.4082C65.0999 23.8457 64.6858 23.1934 64.3967 22.4512C64.1077 21.7012 63.9631 20.9043 63.9631 20.0605V19.5918C63.9631 18.6309 64.0999 17.752 64.3733 16.9551C64.6467 16.1582 65.0374 15.4668 65.5452 14.8809C66.0608 14.2949 66.6858 13.8457 67.4202 13.5332C68.1545 13.2129 68.9827 13.0527 69.9045 13.0527C70.803 13.0527 71.5999 13.2012 72.2952 13.498C72.9905 13.7949 73.5725 14.2168 74.0413 14.7637C74.5178 15.3105 74.8772 15.9668 75.1194 16.7324C75.3616 17.4902 75.4827 18.334 75.4827 19.2637V20.6699H65.4045V18.4199H72.1663V18.1621C72.1663 17.6934 72.0803 17.2754 71.9084 16.9082C71.7444 16.5332 71.4944 16.2363 71.1584 16.0176C70.8225 15.7988 70.3928 15.6895 69.8694 15.6895C69.4241 15.6895 69.0413 15.7871 68.7209 15.9824C68.4006 16.1777 68.1389 16.4512 67.9358 16.8027C67.7405 17.1543 67.592 17.5684 67.4905 18.0449C67.3967 18.5137 67.3499 19.0293 67.3499 19.5918V20.0605C67.3499 20.5684 67.4202 21.0371 67.5608 21.4668C67.7092 21.8965 67.9163 22.2676 68.1819 22.5801C68.4553 22.8926 68.7834 23.1348 69.1663 23.3066C69.5569 23.4785 69.9983 23.5645 70.4905 23.5645C71.0999 23.5645 71.6663 23.4473 72.1897 23.2129C72.7209 22.9707 73.178 22.6074 73.5608 22.123L75.2014 23.9043C74.9358 24.2871 74.5725 24.6543 74.1116 25.0059C73.6584 25.3574 73.1116 25.6465 72.4709 25.873C71.8303 26.0918 71.0999 26.2012 70.2795 26.2012ZM84.2483 23.1074V17.459C84.2483 17.0527 84.1819 16.7051 84.0491 16.416C83.9163 16.1191 83.7092 15.8887 83.428 15.7246C83.1545 15.5605 82.7991 15.4785 82.3616 15.4785C81.9866 15.4785 81.6624 15.5449 81.3889 15.6777C81.1155 15.8027 80.9045 15.9863 80.7561 16.2285C80.6077 16.4629 80.5334 16.7402 80.5334 17.0605H77.1584C77.1584 16.5215 77.2834 16.0098 77.5334 15.5254C77.7834 15.041 78.1467 14.6152 78.6233 14.248C79.0999 13.873 79.6663 13.5801 80.3225 13.3691C80.9866 13.1582 81.7288 13.0527 82.5491 13.0527C83.5334 13.0527 84.4084 13.2168 85.1741 13.5449C85.9397 13.873 86.5413 14.3652 86.9788 15.0215C87.4241 15.6777 87.6467 16.498 87.6467 17.4824V22.9082C87.6467 23.6035 87.6897 24.1738 87.7756 24.6191C87.8616 25.0566 87.9866 25.4395 88.1506 25.7676V25.9668H84.7405C84.5764 25.623 84.4514 25.1934 84.3655 24.6777C84.2874 24.1543 84.2483 23.6309 84.2483 23.1074ZM84.6936 18.2441L84.717 20.1543H82.8303C82.385 20.1543 81.9983 20.2051 81.6702 20.3066C81.342 20.4082 81.0725 20.5527 80.8616 20.7402C80.6506 20.9199 80.4944 21.1309 80.3928 21.373C80.2991 21.6152 80.2522 21.8809 80.2522 22.1699C80.2522 22.459 80.3186 22.7207 80.4514 22.9551C80.5842 23.1816 80.7756 23.3613 81.0256 23.4941C81.2756 23.6191 81.5686 23.6816 81.9045 23.6816C82.4124 23.6816 82.8538 23.5801 83.2288 23.377C83.6038 23.1738 83.8928 22.9238 84.0959 22.627C84.3069 22.3301 84.4163 22.0488 84.4241 21.7832L85.3147 23.2129C85.1897 23.5332 85.0178 23.8652 84.7991 24.209C84.5881 24.5527 84.3186 24.877 83.9905 25.1816C83.6624 25.4785 83.2678 25.7246 82.8069 25.9199C82.3459 26.1074 81.7991 26.2012 81.1663 26.2012C80.3616 26.2012 79.6311 26.041 78.9749 25.7207C78.3264 25.3926 77.8108 24.9434 77.428 24.373C77.053 23.7949 76.8655 23.1387 76.8655 22.4043C76.8655 21.7402 76.9905 21.1504 77.2405 20.6348C77.4905 20.1191 77.8577 19.6855 78.342 19.334C78.8342 18.9746 79.4475 18.7051 80.1819 18.5254C80.9163 18.3379 81.7678 18.2441 82.7366 18.2441H84.6936ZM94.3733 23.5059L97.1858 13.2871H100.713L96.4358 25.9668H94.303L94.3733 23.5059ZM92.4397 13.2871L95.2639 23.5176L95.3225 25.9668H93.178L88.9006 13.2871H92.4397ZM105.987 24.5371L109.35 13.2871H112.971L107.873 27.877C107.764 28.1973 107.615 28.541 107.428 28.9082C107.248 29.2754 107.002 29.623 106.69 29.9512C106.385 30.2871 105.998 30.5605 105.53 30.7715C105.069 30.9824 104.502 31.0879 103.83 31.0879C103.51 31.0879 103.248 31.0684 103.045 31.0293C102.842 30.9902 102.6 30.9355 102.319 30.8652V28.3926C102.405 28.3926 102.494 28.3926 102.588 28.3926C102.682 28.4004 102.772 28.4043 102.858 28.4043C103.303 28.4043 103.666 28.3535 103.948 28.252C104.229 28.1504 104.455 27.9941 104.627 27.7832C104.799 27.5801 104.936 27.3145 105.037 26.9863L105.987 24.5371ZM104.58 13.2871L107.334 22.4746L107.815 26.0488L105.518 26.2949L100.959 13.2871H104.58Z" fill="#0F172A"/>
</svg>
