<svg width="48" height="48" viewBox="0 0 48 48" fill="none" xmlns="http://www.w3.org/2000/svg">
<g id="Frame" clip-path="url(#clip0_384_3196)">
<g id="_x32_3_x2C__Photoshop_x2C__Adobe">
<g id="Group">
<path id="Vector" d="M47.9798 0.0673828H0.113281V47.9341H47.9798V0.0673828Z" fill="#4FC7EC"/>
<path id="Vector_2" d="M45.8731 2.17383H2.21875V45.8281H45.8731V2.17383Z" fill="#242238"/>
<g id="Group_2">
<g id="Group_3">
<g id="Group_4">
<g id="XMLID_239_">
<g id="Group_5">
<path id="XMLID_240_" d="M11.755 11.6304C11.755 11.4654 11.7833 11.3999 11.9248 11.3999C13.001 11.3667 15.1258 11.334 17.2784 11.334C22.8298 11.334 24.9473 14.564 24.9756 18.3845C24.9756 23.6202 21.0734 25.6055 16.91 25.6055C16.117 25.6055 15.3523 25.6055 15.1537 25.6055V33.0862C15.1537 33.2839 15.0974 33.35 14.9555 33.35H11.9531C11.8116 33.35 11.7549 33.284 11.7549 33.1194L11.755 11.6304ZM15.1538 22.4113C15.3807 22.4441 15.8054 22.4768 16.9952 22.4768C19.2325 22.4768 21.3852 21.8392 21.3852 18.546C21.3852 15.9114 19.9409 14.5582 17.2784 14.5582C16.1738 14.5582 15.3807 14.591 15.1538 14.6242V22.4113Z" fill="#4FC7EC"/>
</g>
</g>
<g id="XMLID_236_">
<g id="Group_6">
<path id="XMLID_237_" d="M32.0454 19.9499C30.6815 19.9499 30.32 20.803 30.32 21.4286C30.32 22.2192 30.6815 22.6471 32.769 23.6352C35.6356 25.0183 36.8602 26.237 36.8602 28.6077C36.8602 31.9011 34.7172 33.7748 31.6555 33.7748C30.1806 33.7748 28.3194 33.6341 27.1505 32.778C27.0391 32.712 26.9834 32.6134 26.9834 32.4484V29.4188C26.9834 29.2541 27.0949 29.1882 27.1784 29.2541C28.6255 30.3409 30.2395 30.6497 31.6866 30.6497C32.9671 30.6497 33.4122 29.7963 33.4122 29.072C33.4122 28.2158 33.1029 27.7216 31.0989 26.7667C28.2323 25.3835 27.039 24.1949 27.039 21.791C27.039 19.1233 29.0393 16.9199 32.3235 16.9199C34.021 16.9199 35.2176 16.9654 35.9972 17.492C36.1361 17.6238 36.1641 17.7225 36.1641 17.9202V20.6206C36.1641 20.818 36.0528 20.9171 35.9136 20.818C34.9117 20.1596 33.4926 19.9499 32.0454 19.9499Z" fill="#4FC7EC"/>
</g>
</g>
</g>
</g>
</g>
</g>
</g>
</g>
<defs>
<clipPath id="clip0_384_3196">
<rect width="48" height="48" fill="white"/>
</clipPath>
</defs>
</svg>
