<svg width="24" height="24" viewBox="0 0 24 24" fill="none" xmlns="http://www.w3.org/2000/svg">
<g id="SVG">
<path id="Vector" fill-rule="evenodd" clip-rule="evenodd" d="M3.00195 6.5C3.00195 4.567 4.56895 3 6.50195 3C8.43494 3 10.002 4.567 10.002 6.5V8H14.002V6.5C14.002 4.567 15.569 3 17.502 3C19.435 3 21.002 4.567 21.002 6.5C21.002 8.433 19.435 10 17.502 10H16.002V14H17.502C19.435 14 21.002 15.567 21.002 17.5C21.002 19.433 19.435 21 17.502 21C15.569 21 14.002 19.433 14.002 17.5V16H10.002V17.5C10.002 19.433 8.43494 21 6.50195 21C4.56895 21 3.00195 19.433 3.00195 17.5C3.00195 15.567 4.56895 14 6.50195 14H8.00195V10H6.50195C4.56895 10 3.00195 8.433 3.00195 6.5ZM8.00195 8V6.5C8.00195 5.67157 7.33037 5 6.50195 5C5.67352 5 5.00195 5.67157 5.00195 6.5C5.00195 7.32843 5.67352 8 6.50195 8H8.00195ZM10.002 10V14H14.002V10H10.002ZM8.00195 16H6.50195C5.67352 16 5.00195 16.6716 5.00195 17.5C5.00195 18.3284 5.67352 19 6.50195 19C7.33037 19 8.00195 18.3284 8.00195 17.5V16ZM16.002 16V17.5C16.002 18.3284 16.6736 19 17.502 19C18.3304 19 19.002 18.3284 19.002 17.5C19.002 16.6716 18.3304 16 17.502 16H16.002ZM16.002 8H17.502C18.3304 8 19.002 7.32843 19.002 6.5C19.002 5.67157 18.3304 5 17.502 5C16.6735 5 16.002 5.67157 16.002 6.5V8Z" fill="#FF6D2C"/>
</g>
</svg>
