<svg width="24" height="25" viewBox="0 0 24 25" fill="none" xmlns="http://www.w3.org/2000/svg">
<g id="SVG">
<path id="Vector" d="M14 8.96875C14 8.41647 13.5523 7.96875 13 7.96875C12.4477 7.96875 12 8.41647 12 8.96875C12 11.2773 11.4892 12.7112 10.6158 13.5845C9.74243 14.4579 8.30849 14.9688 6 14.9688C5.44772 14.9688 5 15.4165 5 15.9688C5 16.521 5.44772 16.9688 6 16.9688C8.30849 16.9688 9.74243 17.4795 10.6158 18.3529C11.4892 19.2263 12 20.6602 12 22.9688C12 23.521 12.4477 23.9688 13 23.9688C13.5523 23.9688 14 23.521 14 22.9688C14 20.6602 14.5108 19.2263 15.3842 18.3529C16.2576 17.4795 17.6915 16.9688 20 16.9688C20.5523 16.9688 21 16.521 21 15.9688C21 15.4165 20.5523 14.9688 20 14.9688C17.6915 14.9688 16.2576 14.4579 15.3842 13.5845C14.5108 12.7112 14 11.2773 14 8.96875Z" fill="#9585FF"/>
<path id="Vector_2" d="M6 6.46875C6 6.19261 5.77614 5.96875 5.5 5.96875C5.22386 5.96875 5 6.19261 5 6.46875C5 7.44938 4.78279 8.04135 4.4277 8.39645C4.0726 8.75154 3.48063 8.96875 2.5 8.96875C2.22386 8.96875 2 9.19261 2 9.46875C2 9.74489 2.22386 9.96875 2.5 9.96875C3.48063 9.96875 4.0726 10.186 4.4277 10.541C4.78279 10.8962 5 11.4882 5 12.4688C5 12.7449 5.22386 12.9688 5.5 12.9688C5.77614 12.9688 6 12.7449 6 12.4688C6 11.4882 6.21721 10.8962 6.5723 10.541C6.9274 10.186 7.51937 9.96875 8.5 9.96875C8.77614 9.96875 9 9.74489 9 9.46875C9 9.19261 8.77614 8.96875 8.5 8.96875C7.51937 8.96875 6.9274 8.75154 6.5723 8.39645C6.21721 8.04135 6 7.44938 6 6.46875Z" fill="#9585FF"/>
<path id="Vector_3" d="M11 2.46875C11 2.19261 10.7761 1.96875 10.5 1.96875C10.2239 1.96875 10 2.19261 10 2.46875C10 3.10216 9.85918 3.44413 9.66728 3.63603C9.47538 3.82793 9.13341 3.96875 8.5 3.96875C8.22386 3.96875 8 4.19261 8 4.46875C8 4.74489 8.22386 4.96875 8.5 4.96875C9.13341 4.96875 9.47538 5.10957 9.66728 5.30147C9.85918 5.49337 10 5.83534 10 6.46875C10 6.74489 10.2239 6.96875 10.5 6.96875C10.7761 6.96875 11 6.74489 11 6.46875C11 5.83534 11.1408 5.49337 11.3327 5.30147C11.5246 5.10957 11.8666 4.96875 12.5 4.96875C12.7761 4.96875 13 4.74489 13 4.46875C13 4.19261 12.7761 3.96875 12.5 3.96875C11.8666 3.96875 11.5246 3.82793 11.3327 3.63603C11.1408 3.44413 11 3.10216 11 2.46875Z" fill="#9585FF"/>
</g>
</svg>
