<svg width="24" height="24" viewBox="0 0 24 24" fill="none" xmlns="http://www.w3.org/2000/svg">
<g id="SVG">
<path id="Vector" d="M7 3C7.55228 3 8 3.44772 8 4V6H10C10.5523 6 11 6.44772 11 7C11 7.55228 10.5523 8 10 8H8V10C8 10.5523 7.55228 11 7 11C6.44772 11 6 10.5523 6 10V8H4C3.44772 8 3 7.55228 3 7C3 6.44772 3.44772 6 4 6H6V4C6 3.44772 6.44772 3 7 3Z" fill="#FF6D2C"/>
<path id="Vector_2" d="M17 3C14.7909 3 13 4.79086 13 7C13 9.20914 14.7909 11 17 11C19.2091 11 21 9.20914 21 7C21 4.79086 19.2091 3 17 3Z" fill="#FF6D2C"/>
<path id="Vector_3" d="M19.8287 15.585C20.2193 15.1945 20.2193 14.5613 19.8287 14.1708C19.4382 13.7803 18.805 13.7803 18.4145 14.1708L17.0003 15.585L15.5861 14.1708C15.1956 13.7803 14.5624 13.7803 14.1719 14.1708C13.7813 14.5613 13.7813 15.1945 14.1719 15.585L15.5861 16.9992L14.1719 18.4134C13.7813 18.804 13.7813 19.4371 14.1719 19.8277C14.5624 20.2182 15.1956 20.2182 15.5861 19.8277L17.0003 18.4134L18.4145 19.8277C18.805 20.2182 19.4382 20.2182 19.8287 19.8277C20.2193 19.4371 20.2193 18.804 19.8287 18.4134L18.4145 16.9992L19.8287 15.585Z" fill="#FF6D2C"/>
<path id="Vector_4" d="M4 13C3.44772 13 3 13.4477 3 14V20C3 20.5523 3.44772 21 4 21H10C10.5523 21 11 20.5523 11 20V14C11 13.4477 10.5523 13 10 13H4Z" fill="#FF6D2C"/>
</g>
</svg>
