<svg width="24" height="25" viewBox="0 0 24 25" fill="none" xmlns="http://www.w3.org/2000/svg">
<g id="SVG">
<path id="Vector" d="M7 3.96875C7.55228 3.96875 8 4.41647 8 4.96875V6.96875H10C10.5523 6.96875 11 7.41647 11 7.96875C11 8.52103 10.5523 8.96875 10 8.96875H8V10.9688C8 11.521 7.55228 11.9688 7 11.9688C6.44772 11.9688 6 11.521 6 10.9688V8.96875H4C3.44772 8.96875 3 8.52103 3 7.96875C3 7.41647 3.44772 6.96875 4 6.96875H6V4.96875C6 4.41647 6.44772 3.96875 7 3.96875Z" fill="#9585FF"/>
<path id="Vector_2" d="M17 3.96875C14.7909 3.96875 13 5.75961 13 7.96875C13 10.1779 14.7909 11.9688 17 11.9688C19.2091 11.9688 21 10.1779 21 7.96875C21 5.75961 19.2091 3.96875 17 3.96875Z" fill="#9585FF"/>
<path id="Vector_3" d="M19.8284 16.5547C20.219 16.1642 20.219 15.531 19.8284 15.1405C19.4379 14.75 18.8047 14.75 18.4142 15.1405L17 16.5547L15.5858 15.1405C15.1953 14.75 14.5621 14.75 14.1716 15.1405C13.781 15.531 13.781 16.1642 14.1716 16.5547L15.5858 17.9689L14.1716 19.3831C13.781 19.7737 13.781 20.4068 14.1716 20.7974C14.5621 21.1879 15.1953 21.1879 15.5858 20.7974L17 19.3831L18.4142 20.7974C18.8047 21.1879 19.4379 21.1879 19.8284 20.7974C20.219 20.4068 20.219 19.7737 19.8284 19.3831L18.4142 17.9689L19.8284 16.5547Z" fill="#9585FF"/>
<path id="Vector_4" d="M4 13.9688C3.44772 13.9688 3 14.4165 3 14.9688V20.9688C3 21.521 3.44772 21.9688 4 21.9688H10C10.5523 21.9688 11 21.521 11 20.9688V14.9688C11 14.4165 10.5523 13.9688 10 13.9688H4Z" fill="#9585FF"/>
</g>
</svg>
