<svg width="24" height="25" viewBox="0 0 24 25" fill="none" xmlns="http://www.w3.org/2000/svg">
<g id="SVG">
<path id="Vector" d="M7 8.96875C7 9.52103 6.55228 9.96875 6 9.96875C5.44772 9.96875 5 9.52103 5 8.96875C5 8.41647 5.44772 7.96875 6 7.96875C6.55228 7.96875 7 8.41647 7 8.96875Z" fill="#9585FF"/>
<path id="Vector_2" d="M10 8.96875C10 9.52103 9.55228 9.96875 9 9.96875C8.44772 9.96875 8 9.52103 8 8.96875C8 8.41647 8.44772 7.96875 9 7.96875C9.55228 7.96875 10 8.41647 10 8.96875Z" fill="#9585FF"/>
<path id="Vector_3" d="M12 9.96875C12.5523 9.96875 13 9.52103 13 8.96875C13 8.41647 12.5523 7.96875 12 7.96875C11.4477 7.96875 11 8.41647 11 8.96875C11 9.52103 11.4477 9.96875 12 9.96875Z" fill="#9585FF"/>
<path id="Vector_4" d="M2 5.96875C2 5.41647 2.44772 4.96875 3 4.96875H21C21.5523 4.96875 22 5.41647 22 5.96875V8.96875C22 9.52103 21.5523 9.96875 21 9.96875C20.4477 9.96875 20 9.52103 20 8.96875V6.96875H4V18.9688H10C10.5523 18.9688 11 19.4165 11 19.9688C11 20.521 10.5523 20.9688 10 20.9688H3C2.44772 20.9688 2 20.521 2 19.9688V5.96875Z" fill="#9585FF"/>
<path id="Vector_5" d="M18 11.9688C18.5523 11.9688 19 12.4165 19 12.9688C19 14.2355 19.2816 14.9196 19.6654 15.3034C20.0492 15.6872 20.7332 15.9688 22 15.9688C22.5523 15.9688 23 16.4165 23 16.9688C23 17.521 22.5523 17.9688 22 17.9688C20.7332 17.9688 20.0492 18.2503 19.6654 18.6341C19.2816 19.0179 19 19.702 19 20.9688C19 21.521 18.5523 21.9688 18 21.9688C17.4477 21.9688 17 21.521 17 20.9688C17 19.702 16.7184 19.0179 16.3346 18.6341C15.9508 18.2503 15.2668 17.9688 14 17.9688C13.4477 17.9688 13 17.521 13 16.9688C13 16.4165 13.4477 15.9688 14 15.9688C15.2668 15.9688 15.9508 15.6872 16.3346 15.3034C16.7184 14.9196 17 14.2355 17 12.9688C17 12.4165 17.4477 11.9688 18 11.9688Z" fill="#9585FF"/>
</g>
</svg>
