<svg width="24" height="25" viewBox="0 0 24 25" fill="none" xmlns="http://www.w3.org/2000/svg">
<g id="SVG">
<path id="Vector" fill-rule="evenodd" clip-rule="evenodd" d="M3.00098 7.46875C3.00098 5.53575 4.56798 3.96875 6.50098 3.96875C8.43397 3.96875 10.001 5.53575 10.001 7.46875V8.96875H14.001V7.46875C14.001 5.53575 15.568 3.96875 17.501 3.96875C19.434 3.96875 21.001 5.53575 21.001 7.46875C21.001 9.40175 19.434 10.9688 17.501 10.9688H16.001V14.9688H17.501C19.434 14.9688 21.001 16.5358 21.001 18.4688C21.001 20.4018 19.434 21.9688 17.501 21.9688C15.568 21.9688 14.001 20.4018 14.001 18.4688V16.9688H10.001V18.4688C10.001 20.4018 8.43397 21.9688 6.50098 21.9688C4.56798 21.9688 3.00098 20.4018 3.00098 18.4688C3.00098 16.5358 4.56798 14.9688 6.50098 14.9688H8.00098V10.9688H6.50098C4.56798 10.9688 3.00098 9.40175 3.00098 7.46875ZM8.00098 8.96875V7.46875C8.00098 6.64032 7.3294 5.96875 6.50098 5.96875C5.67255 5.96875 5.00098 6.64032 5.00098 7.46875C5.00098 8.29718 5.67255 8.96875 6.50098 8.96875H8.00098ZM10.001 10.9688V14.9688H14.001V10.9688H10.001ZM8.00098 16.9688H6.50098C5.67255 16.9688 5.00098 17.6404 5.00098 18.4688C5.00098 19.2971 5.67255 19.9688 6.50098 19.9688C7.3294 19.9688 8.00098 19.2971 8.00098 18.4688V16.9688ZM16.001 16.9688V18.4688C16.001 19.2971 16.6726 19.9688 17.501 19.9688C18.3294 19.9688 19.001 19.2971 19.001 18.4688C19.001 17.6404 18.3294 16.9688 17.501 16.9688H16.001ZM16.001 8.96875H17.501C18.3294 8.96875 19.001 8.29718 19.001 7.46875C19.001 6.64032 18.3294 5.96875 17.501 5.96875C16.6725 5.96875 16.001 6.64032 16.001 7.46875V8.96875Z" fill="#9585FF"/>
</g>
</svg>
