<svg width="127" height="56" viewBox="0 0 127 56" fill="none" xmlns="http://www.w3.org/2000/svg">
<g clip-path="url(#clip0_397_2987)">
<path d="M47.6675 25.2686H53.1287V30.732H47.6675V25.2686ZM47.6675 33.4637H53.1287V52.5857H47.6675V33.4637ZM55.8805 30.732H58.6111V33.4637H55.8805V30.732ZM58.6111 30.732H61.3417V33.4637H58.6111V30.732ZM58.6111 33.4637H61.3417V36.1955H58.6111V33.4637ZM58.6111 36.1955H61.3417V38.9272H58.6111V36.1955ZM58.6111 38.9272H61.3417V41.6589H58.6111V38.9272ZM58.6111 41.6589H61.3417V44.3905H58.6111V41.6589ZM55.8805 41.6589H58.6111V44.3905H55.8805V41.6589ZM55.8805 38.9272H58.6111V41.6589H55.8805V38.9272ZM55.8805 36.1955H58.6111V38.9272H55.8805V36.1955ZM55.8805 33.4637H58.6111V36.1955H55.8805V33.4637ZM58.6111 44.3905H61.3417V47.1222H58.6111V44.3905ZM61.3417 44.3905H64.0724V47.1222H61.3417V44.3905ZM61.3417 47.1222H64.0724V49.854H61.3417V47.1222ZM64.0724 47.1222H66.803V49.854H64.0724V47.1222ZM64.0724 49.854H66.803V52.5857H64.0724V49.854ZM66.803 47.1222H69.5336V49.854H66.803V47.1222ZM66.803 44.3905H69.5336V47.1222H66.803V44.3905ZM69.5336 44.3905H72.2642V47.1222H69.5336V44.3905ZM69.5336 41.6589H72.2642V44.3905H69.5336V41.6589ZM69.5336 38.9272H72.2642V41.6589H69.5336V38.9272ZM69.5336 36.1955H72.2642V38.9272H69.5336V36.1955ZM69.5336 33.4637H72.2642V36.1955H69.5336V33.4637ZM69.5336 30.732H72.2642V33.4637H69.5336V30.732ZM72.2642 38.9272H74.9947V41.6589H72.2642V38.9272ZM72.2642 41.6589H74.9947V44.3905H72.2642V41.6589ZM72.2642 36.1955H74.9947V38.9272H72.2642V36.1955ZM72.2642 33.4637H74.9947V36.1955H72.2642V33.4637ZM72.2642 30.732H74.9947V33.4637H72.2642V30.732ZM64.0724 44.3905H66.803V47.1222H64.0724V44.3905ZM61.3417 41.6589H64.0724V44.3905H61.3417V41.6589ZM66.803 41.6589H69.5336V44.3905H66.803V41.6589ZM77.7325 25.2686H83.1937V30.732H77.7325V25.2686ZM77.7325 33.4637H83.1937V52.5857H77.7325V33.4637ZM91.4067 30.732H94.1373V33.4637H91.4067V30.732ZM88.6761 30.732H91.4067V33.4637H88.6761V30.732ZM88.6761 33.4637H91.4067V36.1955H88.6761V33.4637ZM91.4067 33.4637H94.1373V36.1955H91.4067V33.4637ZM94.1373 30.732H96.868V33.4637H94.1373V30.732ZM96.868 30.732H99.5986V33.4637H96.868V30.732ZM99.5986 30.732H102.329V33.4637H99.5986V30.732ZM99.5986 33.4637H102.329V36.1955H99.5986V33.4637ZM96.868 33.4637H99.5986V36.1955H96.868V33.4637ZM99.5986 38.9272H102.329V41.6589H99.5986V38.9272ZM102.329 33.4637H105.06V36.1955H102.329V33.4637ZM102.329 36.1955H105.06V38.9272H102.329V36.1955ZM102.329 38.9272H105.06V41.6589H102.329V38.9272ZM102.329 41.6589H105.06V44.3905H102.329V41.6589ZM102.329 44.3905H105.06V47.1222H102.329V44.3905ZM102.329 47.1222H105.06V49.854H102.329V47.1222ZM99.5986 47.1222H102.329V49.854H99.5986V47.1222ZM99.5986 44.3905H102.329V47.1222H99.5986V44.3905ZM99.5986 41.6589H102.329V44.3905H99.5986V41.6589ZM99.5986 36.1955H102.329V38.9272H99.5986V36.1955ZM96.868 47.1222H99.5986V49.854H96.868V47.1222ZM99.5986 49.854H102.329V52.5857H99.5986V49.854ZM96.868 49.854H99.5986V52.5857H96.868V49.854ZM94.1373 49.854H96.868V52.5857H94.1373V49.854ZM91.4067 49.854H94.1373V52.5857H91.4067V49.854ZM88.6761 49.854H91.4067V52.5857H88.6761V49.854ZM88.6761 47.1222H91.4067V49.854H88.6761V47.1222ZM91.4067 47.1222H94.1373V49.854H91.4067V47.1222ZM88.6761 44.3905H91.4067V47.1222H88.6761V44.3905ZM85.9455 47.1222H88.6761V49.854H85.9455V47.1222ZM85.9455 44.3905H88.6761V47.1222H85.9455V44.3905ZM85.9455 41.6589H88.6761V44.3905H85.9455V41.6589ZM85.9455 38.9272H88.6761V41.6589H85.9455V38.9272ZM85.9455 36.1955H88.6761V38.9272H85.9455V36.1955ZM85.9455 33.4637H88.6761V36.1955H85.9455V33.4637ZM88.6761 36.1955H91.4067V38.9272H88.6761V36.1955ZM88.6761 38.9272H91.4067V41.6589H88.6761V38.9272ZM88.6761 41.6589H91.4067V44.3905H88.6761V41.6589ZM94.1373 47.1222H96.868V49.854H94.1373V47.1222ZM94.1373 33.4637H96.868V36.1955H94.1373V33.4637ZM107.797 33.4637H110.528V36.1955H107.797V33.4637ZM107.797 30.732H110.528V33.4637H107.797V30.732ZM110.528 30.732H113.259V33.4637H110.528V30.732ZM110.528 33.4637H113.259V36.1955H110.528V33.4637ZM110.528 36.1955H113.259V38.9272H110.528V36.1955ZM110.528 38.9272H113.259V41.6589H110.528V38.9272ZM110.528 41.6589H113.259V44.3905H110.528V41.6589ZM107.797 41.6589H110.528V44.3905H107.797V41.6589ZM107.797 38.9272H110.528V41.6589H107.797V38.9272ZM107.797 36.1955H110.528V38.9272H107.797V36.1955ZM107.797 44.3905H110.528V47.1222H107.797V44.3905ZM110.528 44.3905H113.259V47.1222H110.528V44.3905ZM110.528 47.1222H113.259V49.854H110.528V47.1222ZM110.528 49.854H113.259V52.5857H110.528V49.854ZM107.797 49.854H110.528V52.5857H107.797V49.854ZM107.797 47.1222H110.528V49.854H107.797V47.1222ZM121.45 49.854H124.181V52.5857H121.45V49.854ZM124.181 49.854H126.912V52.5857H124.181V49.854ZM124.181 47.1222H126.912V49.854H124.181V47.1222ZM124.181 44.3905H126.912V47.1222H124.181V44.3905ZM124.181 41.6589H126.912V44.3905H124.181V41.6589ZM124.181 38.9272H126.912V41.6589H124.181V38.9272ZM124.181 36.1955H126.912V38.9272H124.181V36.1955ZM124.181 33.4637H126.912V36.1955H124.181V33.4637ZM121.45 38.9272H124.181V41.6589H121.45V38.9272ZM121.45 41.6589H124.181V44.3905H121.45V41.6589ZM121.45 44.3905H124.181V47.1222H121.45V44.3905ZM121.45 47.1222H124.181V49.854H121.45V47.1222ZM121.45 36.1955H124.181V38.9272H121.45V36.1955ZM113.259 33.4637H115.989V36.1955H113.259V33.4637ZM115.989 33.4637H118.72V36.1955H115.989V33.4637ZM118.72 33.4637H121.45V36.1955H118.72V33.4637ZM118.72 30.732H121.45V33.4637H118.72V30.732ZM121.45 30.732H124.181V33.4637H121.45V30.732ZM121.45 33.4637H124.181V36.1955H121.45V33.4637ZM115.989 30.732H118.72V33.4637H115.989V30.732Z" fill="#9945FF"/>
<path d="M31.857 0C28.3382 -7.69375e-08 25.4856 2.85373 25.4856 6.37398C25.4856 9.89424 28.3382 12.748 31.857 12.748C35.3757 12.748 38.2284 9.89424 38.2284 6.37398C38.2284 2.85373 35.3757 7.69375e-08 31.857 0ZM31.857 43.0244C28.3382 43.0244 25.4856 45.8782 25.4856 49.3984C25.4856 52.9186 28.3382 55.7724 31.857 55.7724C35.3757 55.7724 38.2284 52.9186 38.2284 49.3984C38.2284 45.8782 35.3757 43.0244 31.857 43.0244ZM30.6623 6.37398V49.3984H33.0516V6.37398H30.6623Z" fill="#FF6D2C"/>
<path d="M0 28.6826C0 32.2028 2.85256 35.0566 6.37139 35.0566C9.89021 35.0566 12.7428 32.2028 12.7428 28.6826C12.7428 25.1624 9.89021 22.3086 6.37139 22.3086C2.85256 22.3086 0 25.1624 0 28.6826ZM25.4855 28.6826C25.4855 32.2028 28.3382 35.0566 31.8569 35.0566C35.3757 35.0566 38.2283 32.2028 38.2283 28.6826C38.2283 25.1624 35.3757 22.3086 31.8569 22.3086C28.3382 22.3086 25.4855 25.1624 25.4855 28.6826ZM6.37139 29.8777H31.8569V27.4875H6.37139V29.8777Z" fill="#FF6D2C"/>
<path d="M6.37139 0C2.85257 -7.69375e-08 4.0674e-06 2.85373 3.75977e-06 6.37398C3.45215e-06 9.89424 2.85257 12.748 6.37139 12.748C9.89021 12.748 12.7428 9.89424 12.7428 6.37398C12.7428 2.85373 9.89021 7.69375e-08 6.37139 0ZM6.37139 43.0244C2.85257 43.0244 3.07626e-07 45.8782 0 49.3984C-3.07626e-07 52.9186 2.85257 55.7724 6.37139 55.7724C9.89021 55.7724 12.7428 52.9186 12.7428 49.3984C12.7428 45.8782 9.89021 43.0244 6.37139 43.0244ZM5.17675 6.37398V49.3984H7.56602V6.37398H5.17675Z" fill="#FF6D2C"/>
</g>
<defs>
<clipPath id="clip0_397_2987">
<rect width="127" height="56" fill="white"/>
</clipPath>
</defs>
</svg>
